<svg id="Capa_1" enable-background="new 0 0 510 510" height="512" viewBox="0 0 510 510" width="512" xmlns="http://www.w3.org/2000/svg"><g><g id="XMLID_54_"><path id="XMLID_155_" d="m390 75 10-15-10-15h-105v195h-110.083l-5.167 18.333 10.25 11.667h105v195h105l10-15-10-15h-75v-165h75l10-15-10-15h-75v-165z" fill="#e9e4f0"/><path id="XMLID_154_" d="m390 0v120h60l10-60-10-60z" fill="#a1e2f8"/><path id="XMLID_153_" d="m450 0h60v120h-60z" fill="#7ec8e3"/><path id="XMLID_150_" d="m390 315h60l10-56-10-64h-60z" fill="#f4d844"/><path id="XMLID_147_" d="m450 195h60v120h-60z" fill="#ecbd2c"/><path id="XMLID_146_" d="m390 510h60l10-56-10-64h-60z" fill="#e07167"/><path id="XMLID_144_" d="m450 390h60v120h-60z" fill="#c6275b"/><path id="XMLID_143_" d="m0 270v30h90v-120c-49.626 0-90 40.374-90 90z" fill="#e07167"/><path id="XMLID_139_" d="m30 150c0 33.084 26.916 60 60 60v-120c-33.084 0-60 26.916-60 60z" fill="#f5dbcc"/><path id="XMLID_134_" d="m90 90v120c33.084 0 60-26.916 60-60s-26.916-60-60-60z" fill="#edbba7"/><path id="XMLID_131_" d="m46.468 191.246c-27.688 15.365-46.468 44.908-46.468 78.754v15l48.25 10 41.75-10 10-39.5-10-35.5z" fill="#c9e568"/><path id="XMLID_123_" d="m30 150c0 33.084 26.916 60 60 60l10-58-10-62c-33.084 0-60 26.916-60 60z" fill="#f5dbcc"/><path id="XMLID_113_" d="m90 315h-90v-30h90l10 15z" fill="#85c782"/></g><path id="XMLID_127_" d="m133.535 191.247-43.535 18.753v75l45 10 45-10v-15c0-33.845-18.779-63.387-46.465-78.753z" fill="#85c782"/><path id="XMLID_108_" d="m90 285h90v30h-90z" fill="#5ea48d"/><path id="XMLID_117_" d="m90 90v120c33.084 0 60-26.916 60-60s-26.916-60-60-60z" fill="#edbba7"/></g></svg>