<svg height="464pt" viewBox="0 -11 464 463" width="464pt" xmlns="http://www.w3.org/2000/svg"><path d="m88 136.5h48v32h-48zm0 0" fill="#e59730"/><path d="m112 280.5c0-26.507812 21.492188-48 48-48h64v-.558594c-27.824219-3.539062-50.101562-24.777344-54.960938-52.402344-12.117187-5.453124-21.898437-15.035156-27.597656-27.039062h-93.441406c-26.507812 0-48 21.492188-48 48v160h112zm0 0" fill="#57b7eb"/><g fill="#4891d3"><path d="m169.039062 179.539062c-12.117187-5.453124-21.898437-15.035156-27.597656-27.039062h-33.921875c5.511719 19.4375 17.546875 36.386719 34.082031 48l.71875 2c-36.4375 8.257812-62.308593 40.636719-62.320312 78v80h32v-80c0-26.507812 21.492188-48 48-48h64v-.558594c-27.824219-3.539062-50.101562-24.777344-54.960938-52.402344zm0 0"/><path d="m88 184.5v40l-16 99.039062 24 20.960938 16-14v-50c.035156-5.453125.980469-10.859375 2.800781-16l-2.800781-32 8-32zm0 0"/><path d="m72 328.5c-26.507812 0-48-21.492188-48-48v-80c0-26.507812 21.492188-48 48-48h-24c-26.507812 0-48 21.492188-48 48v160h112v-32zm0 0"/></g><path d="m128 216.5h-32l-8-32h48zm0 0" fill="#a1d51c"/><path d="m40 360.5v-128c0-4.417969 3.582031-8 8-8s8 3.582031 8 8v128" fill="#4891d3"/><path d="m112 280.5c.011719-14.703125 6.765625-28.589844 18.320312-37.679688l-2.320312-26.320312h-32l-8 91.039062 24 20.960938zm0 0" fill="#a1d51c"/><path d="m138.398438 144.5c-1.601563-5.179688-2.414063-10.574219-2.398438-16v-64c0-4.417969 3.582031-8 8-8h-80v48c.03125 17.636719 9.734375 33.835938 25.269531 42.1875 15.535157 8.355469 34.398438 7.511719 49.128907-2.1875zm0 0" fill="#fcbc04"/><path d="m136 .5h-96c-4.417969 0-8 3.582031-8 8v48c-.015625 21.644531 12.441406 41.363281 32 50.640625 0-.878906 0-1.761719 0-2.640625v-48h128c0-30.929688-25.070312-56-56-56zm0 0" fill="#57b7eb"/><path d="m88 104.5c.074219 17.074219 9.214844 32.824219 24 41.359375v-65.359375h-24zm0 0" fill="#f9e109"/><path d="m136 56.5c-33.585938-.019531-62.695312-23.253906-70.160156-56h-25.839844c-4.417969 0-8 3.582031-8 8v48c-.015625 21.644531 12.441406 41.363281 32 50.640625 0-.878906 0-1.761719 0-2.640625v-48zm0 0" fill="#4891d3"/><path d="m129.441406 232.5-1.441406-16h-32l-1.441406 16zm0 0" fill="#7ab92d"/><path d="m328 112.5v16c.019531 8.308594-1.839844 16.511719-5.441406 24h93.441406c5.453125.019531 10.863281.964844 16 2.800781v-82.800781c0-39.765625-32.234375-72-72-72h-16c-33.585938.019531-62.695312 23.253906-70.160156 56 30.207031.992188 54.175781 25.777344 54.160156 56zm0 0" fill="#4891d3"/><path d="m416 104.5c-53.019531 0-96-42.980469-96-96v-3.839844c-23.25 8.234375-40.667969 27.792969-46.160156 51.839844 30.207031.992188 54.175781 25.777344 54.160156 56v16c.019531 8.308594-1.839844 16.511719-5.441406 24h93.441406c5.453125.019531 10.863281.964844 16 2.800781v-50.800781zm0 0" fill="#2d72bc"/><path d="m328 136.5h48v32h-48zm0 0" fill="#fcbc04"/><path d="m304 56.5v10.078125c15.027344 10.464844 23.988281 27.613281 24 45.921875v16c.015625 5.425781-.796875 10.820312-2.398438 16 14.730469 9.699219 33.59375 10.542969 49.128907 2.1875 15.535156-8.351562 25.238281-24.550781 25.269531-42.1875v-48zm0 0" fill="#f9e109"/><path d="m328 104.5v-24h72v-24h-96v10.078125c15.027344 10.464844 23.988281 27.613281 24 45.921875v16c.015625 5.425781-.796875 10.820312-2.398438 16 7.824219 5.191406 17.003907 7.972656 26.398438 8 4.054688 0 8.089844-.535156 12-1.601562-21.164062-5.464844-35.964844-24.539063-36-46.398438zm0 0" fill="#fcbc04"/><path d="m416 152.5h-93.441406c-5.699219 12.003906-15.480469 21.585938-27.597656 27.039062-4.859376 27.625-27.136719 48.863282-54.960938 52.402344v.558594h64c26.507812 0 48 21.492188 48 48v80h112v-160c0-26.507812-21.492188-48-48-48zm0 0" fill="#c4f236"/><path d="m328 232.5v-80h-5.441406c-5.699219 12.003906-15.480469 21.585938-27.597656 27.039062-4.859376 27.625-27.136719 48.863282-54.960938 52.402344v.558594h64c8.445312.0625 16.722656 2.355469 24 6.640625 0-2.160156 0-4.402344 0-6.640625zm0 0" fill="#a1d51c"/><path d="m424 328.5c-27.574219-.035156-53.800781-11.925781-72-32.640625v64.640625h112v-32zm0 0" fill="#a1d51c"/><path d="m408 360.5v-128c0-4.417969 3.582031-8 8-8s8 3.582031 8 8v128" fill="#a1d51c"/><path d="m322.558594 152.5c-1.558594 3.175781-3.40625 6.199219-5.519532 9.039062l34.960938 62.960938 40-72zm0 0" fill="#57b7eb"/><path d="m328 152.5h-5.441406c-1.558594 3.175781-3.40625 6.199219-5.519532 9.039062l34.960938 62.960938 6.320312-11.359375zm0 0" fill="#4891d3"/><path d="m192 208.5h80v32h-80zm0 0" fill="#e59730"/><path d="m168 104.5h128v64c0 35.347656-28.652344 64-64 64s-64-28.652344-64-64zm0 0" fill="#fcbc04"/><path d="m192 168.5v-40h104v-24h-128v64c0 35.347656 28.652344 64 64 64 4.03125.003906 8.050781-.398438 12-1.199219-30.148438-5.757812-51.96875-32.105469-52-62.800781zm0 0" fill="#e59730"/><path d="m272 56.5h-128c-4.417969 0-8 3.582031-8 8v64c.015625 22.03125 12.945312 42.007812 33.039062 51.039062-.667968-3.640624-1.019531-7.335937-1.039062-11.039062v-64h128v64c-.019531 3.703125-.371094 7.398438-1.039062 11.039062 20.09375-9.03125 33.023437-29.007812 33.039062-51.039062v-16c0-30.929688-25.070312-56-56-56zm0 0" fill="#4891d3"/><path d="m240 104.5c-34.261719-.035156-65.910156-18.328125-83.039062-48h-12.960938c-4.417969 0-8 3.582031-8 8v64c.015625 22.03125 12.945312 42.007812 33.039062 51.039062-.667968-3.640624-1.019531-7.335937-1.039062-11.039062v-64zm0 0" fill="#2d72bc"/><path d="m160 232.5h144c26.507812 0 48 21.492188 48 48v160h-240v-160c0-26.507812 21.492188-48 48-48zm0 0" fill="#4891d3"/><path d="m240 280.5-32-16v40l-16 99.039062 24 20.960938 24-20.960938-8-91.039062zm0 0" fill="#2d72bc"/><path d="m248 296.5h-32l-8 91.039062 24 20.960938 24-20.960938zm0 0" fill="#a1d51c"/><path d="m249.441406 312.5-1.441406-16h-32l-1.441406 16zm0 0" fill="#7ab92d"/><path d="m248 296.5h-32l-8-32h48zm0 0" fill="#a1d51c"/><path d="m152 440.5v-128c0-4.417969 3.582031-8 8-8s8 3.582031 8 8v128" fill="#2d72bc"/><path d="m296 440.5v-128c0-4.417969 3.582031-8 8-8s8 3.582031 8 8v128" fill="#2d72bc"/><path d="m304 232.5h-24c26.507812 0 48 21.492188 48 48v160h24v-160c0-26.507812-21.492188-48-48-48zm0 0" fill="#57b7eb"/><path d="m194.160156 417.460938c-35.210937-15.101563-58.070312-49.691407-58.160156-88v-48.960938c0-26.507812 21.492188-48 48-48h-24c-26.507812 0-48 21.492188-48 48v160h136zm0 0" fill="#2d72bc"/></svg>