<svg id="Capa_1" enable-background="new 0 0 512.492 512.492" height="512" viewBox="0 0 512.492 512.492" width="512" xmlns="http://www.w3.org/2000/svg"><g><g><g><path d="m175.501 512.492h-160.183c-8.284 0-15-6.716-15-15v-38.859c0-52.518 42.574-95.091 95.091-95.091 52.517 0 95.091 42.574 95.091 95.091v38.859c.001 8.285-6.715 15-14.999 15z" fill="#ff8659"/><path d="m95.41 363.542v148.95h80.091c8.284 0 15-6.716 15-15v-38.859c0-52.517-42.574-95.091-95.091-95.091z" fill="#ff4a4a"/></g><g><g><path d="m66.427 373.542c-23.863 0-43.277-19.414-43.277-43.276v-86.416c0-2.757 2.243-5 5-5h134.518c2.757 0 5 2.243 5 5v86.416c0 23.862-19.414 43.276-43.277 43.276z" fill="#f8e4c9"/><path d="m162.668 238.85h-67.258v134.692h28.982c23.863 0 43.277-19.414 43.277-43.276v-86.416c-.001-2.757-2.244-5-5.001-5z" fill="#f1ceb7"/></g><g><path d="m132.749 272.293h-32.606c-8.68 0-16.623-3.097-22.765-8.268-6.928 5.232-15.529 8.268-24.728 8.268h-25.527c-7.725 0-13.988-6.263-13.988-13.988v-38.775c0-19.156 15.585-34.742 34.741-34.742h94.051c3.858 0 7.919-2.592 8.839-4.821 2.546-6.173 9.097-9.693 15.65-8.388 6.55 1.298 11.269 7.044 11.269 13.721v42.058c0 24.777-20.158 44.935-44.936 44.935z" fill="#453d81"/><path d="m166.416 171.579c-6.553-1.305-13.104 2.215-15.65 8.388-.92 2.229-4.981 4.821-8.839 4.821h-46.517v87.193c1.548.206 3.128.313 4.734.313h32.606c24.778 0 44.936-20.158 44.936-44.935v-42.059c-.001-6.677-4.72-12.423-11.27-13.721z" fill="#38336b"/></g></g></g><g><g><path d="m318.883 512h-59.417c-8.284 0-15-6.716-15-15v-306.913h-14.624c-5.841 0-11.151-3.391-13.608-8.691-2.457-5.299-1.614-11.543 2.16-16.001l59.332-70.087c2.85-3.367 7.038-5.309 11.449-5.309s8.599 1.941 11.449 5.309l59.332 70.087c3.774 4.458 4.617 10.702 2.16 16.001-2.457 5.3-7.767 8.691-13.608 8.691h-14.624v306.913c-.001 8.284-6.717 15-15.001 15z" fill="#d0ec8b"/><path d="m359.955 165.396-59.332-70.087c-2.85-3.367-7.038-5.309-11.449-5.309v422h29.709c8.284 0 15-6.716 15-15v-306.913h14.624c5.841 0 11.151-3.391 13.608-8.691 2.457-5.298 1.614-11.542-2.16-16z" fill="#00da80"/></g><g><path d="m467.55 512h-59.417c-8.284 0-15-6.716-15-15v-396.913h-14.624c-5.841 0-11.151-3.391-13.608-8.69s-1.614-11.543 2.16-16.001l59.332-70.087c2.85-3.368 7.037-5.309 11.449-5.309 4.411 0 8.599 1.941 11.449 5.309l59.332 70.087c3.774 4.458 4.617 10.702 2.16 16.001-2.457 5.3-7.767 8.69-13.608 8.69h-14.625v396.913c0 8.284-6.716 15-15 15z" fill="#d0ec8b"/><path d="m508.623 75.396-59.333-70.087c-2.85-3.368-7.037-5.309-11.448-5.309v512h29.708c8.284 0 15-6.716 15-15v-396.913h14.624c5.841 0 11.151-3.391 13.608-8.69s1.615-11.543-2.159-16.001z" fill="#00da80"/></g></g></g></svg>