<svg id="Capa_1" enable-background="new 0 0 512 512" height="512" viewBox="0 0 512 512" width="512" xmlns="http://www.w3.org/2000/svg"><g><g><g><g fill="#fac600"><path d="m11 267c0 47.547 13.559 91.921 37 129.493l1-.287v-260.301c-24.059 37.909-38 82.872-38 131.095z"/><path d="m463 135.905v260.301l1 .287c23.441-37.572 37-81.946 37-129.493 0-48.223-13.941-93.186-38-131.095z"/><path d="m389.885 471h-267.769l-.299 1c38.546 25.282 84.642 40 134.183 40s95.637-14.718 134.183-40z"/></g><g><path d="m457.067 55h-402.134l-6.933 1v340.493c18.844 30.203 44.078 56.001 73.817 75.507h268.366c29.739-19.505 54.973-45.303 73.817-75.507v-340.493z" fill="#f3f0ff"/></g><g><path d="m48 56v340.493c13.579 21.764 30.49 41.224 50 57.708v-398.201z" fill="#e2deff"/></g><g><g><path d="m449 0h-386c-8.284 0-15 6.716-15 15v41h416v-41c0-8.284-6.716-15-15-15z" fill="#0182fc"/></g><g><path d="m113 0h-50c-8.284 0-15 6.716-15 15v41h50v-41c0-8.284 6.716-15 15-15z" fill="#0172fb"/></g><g><g><circle cx="80.5" cy="26.5" fill="#fd4755" r="7.5"/></g><g><circle cx="102.5" cy="26.5" fill="#fee45a" r="7.5"/></g><g><circle cx="124.5" cy="26.5" fill="#4fc123" r="7.5"/></g></g><g><circle cx="430.5" cy="26.5" fill="#fff" r="7.5"/></g></g></g></g><g><g><g><g><g><g><path d="m344.571 134.583h-46.417v46.892h51.417v-41.892c0-2.761-2.239-5-5-5z" fill="#fe646f"/><path d="m299.154 134.583v46.892h18.827v-41.892c0-2.761 2.239-5 5-5z" fill="#fd4755"/><path d="m299.154 181.476v-66.476c0-2.761-2.239-5-5-5h-84.417c-2.761 0-5 2.239-5 5v66.476z" fill="#ea9b58"/><path d="m240.982 110h-31.244c-2.761 0-5 2.239-5 5v66.476h31.244v-66.476c0-2.761 2.238-5 5-5z" fill="#d88a55"/></g></g></g></g><g><path d="m324.17 311.532c4.358 4.545 7.042 10.709 7.042 17.503 0 13.973-11.327 25.301-25.301 25.301-13.973 0-25.301-11.328-25.301-25.301 0-6.794 2.683-12.958 7.042-17.503z" fill="#7a6d98"/><g><path d="m305.911 337.754c4.807 0 8.719-3.911 8.719-8.719 0-4.807-3.911-8.718-8.719-8.718s-8.718 3.91-8.718 8.718 3.911 8.719 8.718 8.719z" fill="#b5add5"/></g><path d="m241.132 311.532c4.358 4.545 7.042 10.709 7.042 17.503 0 13.973-11.328 25.301-25.301 25.301s-25.301-11.328-25.301-25.301c0-6.794 2.683-12.958 7.042-17.503z" fill="#7a6d98"/><g><path d="m222.873 337.754c4.807 0 8.719-3.911 8.719-8.719 0-4.807-3.911-8.718-8.719-8.718-4.807 0-8.718 3.91-8.718 8.718s3.91 8.719 8.718 8.719z" fill="#b5add5"/></g><g><path d="m201.314 312.532h134.084c4.143 0 7.5-3.357 7.5-7.5s-3.357-7.5-7.5-7.5h-134.084c-1.514 0-2.863-.961-3.359-2.39l-44.252-127.617c-2.587-7.463-9.632-12.477-17.53-12.477h-32.019c-4.143 0-7.5 3.357-7.5 7.5s3.357 7.5 7.5 7.5h32.019c1.513 0 2.862.961 3.358 2.391l44.252 127.617c2.588 7.463 9.633 12.476 17.531 12.476z" fill="#9182b0"/></g><path d="m257.62 260.949c-1.277 0-2.316-1.039-2.316-2.316v-41.73c0-1.277 1.039-2.317 2.316-2.317h102.964c2.38 0 4.316-1.937 4.316-4.316v-21.946c0-1.435 1.21-2.322 2.33-2.322.5 0 .982.168 1.396.484l4.67 3.582.339-.979c1.461-4.215-1.668-8.613-6.129-8.613h-182.875c-4.461 0-7.591 4.398-6.129 8.613l30.669 88.445c.906 2.611 3.366 4.362 6.129 4.362h121.538c2.764 0 5.224-1.751 6.129-4.362l5.751-16.584h-91.098z" fill="#b3dafe"/><path d="m250.982 277.533-30.669-88.445c-1.461-4.215 1.668-8.613 6.129-8.613h-41.811c-4.461 0-7.591 4.398-6.129 8.613l30.669 88.445c.906 2.611 3.366 4.362 6.129 4.362h41.811c-2.763 0-5.224-1.751-6.129-4.362z" fill="#8ac9fe"/></g></g><g><g><path d="m149.154 110h-45c-4.143 0-7.5-3.357-7.5-7.5s3.357-7.5 7.5-7.5h45c4.143 0 7.5 3.357 7.5 7.5s-3.357 7.5-7.5 7.5z" fill="#cfcae4"/></g><g><path d="m149.154 134h-45c-4.143 0-7.5-3.357-7.5-7.5s3.357-7.5 7.5-7.5h45c4.143 0 7.5 3.357 7.5 7.5s-3.357 7.5-7.5 7.5z" fill="#cfcae4"/></g></g><path d="m433.702 235.136-64.467-49.445c-2.182-1.673-5.335-.118-5.335 2.632v21.946c0 1.832-1.485 3.316-3.316 3.316h-102.964c-1.832 0-3.316 1.485-3.316 3.316v41.731c0 1.832 1.485 3.316 3.316 3.316h102.963c1.832 0 3.316 1.485 3.316 3.316v21.946c0 2.749 3.153 4.305 5.335 2.632l64.467-49.445c1.732-1.325 1.732-3.934.001-5.261z" fill="#4fc123"/><g><path d="m380.9 250.731c0-1.832-1.485-3.316-3.317-3.316h-102.963c-1.832 0-3.316-1.485-3.316-3.317v-30.512h-13.684c-1.832 0-3.316 1.485-3.316 3.316v41.731c0 1.832 1.485 3.317 3.316 3.317h102.963c1.832 0 3.317 1.485 3.317 3.316v21.946c0 2.75 3.153 4.305 5.335 2.632l11.665-8.947z" fill="#47a920"/></g></g><g><g><path d="m356.214 382.375h-162.347c6.439 6.585 10.419 15.584 10.419 25.5s-3.98 18.915-10.419 25.5h162.347c14.083 0 25.5-11.417 25.5-25.5 0-14.083-11.417-25.5-25.5-25.5z" fill="#0182fc"/><g fill="#0172fb"><path d="m210.915 415.375h-6.381c-1.395 6.87-4.671 13.053-9.263 18h40.021c-11.473 0-21.174-7.577-24.377-18z"/><path d="m235.292 382.375h-40.021c4.591 4.947 7.868 11.13 9.263 18h6.381c3.203-10.423 12.904-18 24.377-18z"/></g><path d="m341.74 400.375h-138.232c.508 2.422.778 4.93.778 7.5s-.271 5.078-.778 7.5h138.232c4.143 0 7.5-3.357 7.5-7.5s-3.357-7.5-7.5-7.5z" fill="#fff"/></g><g><g><circle cx="167.786" cy="407.875" fill="#4fc123" r="37.5"/></g><path d="m160.286 407.875c0-15.376 9.258-28.583 22.5-34.371-4.594-2.008-9.665-3.129-15-3.129-20.711 0-37.5 16.789-37.5 37.5s16.789 37.5 37.5 37.5c5.335 0 10.406-1.121 15-3.129-13.242-5.788-22.5-18.995-22.5-34.371z" fill="#47a920"/><g><path d="m165.706 428.72c-1.919 0-3.839-.732-5.303-2.196l-15.805-15.805c-2.929-2.93-2.929-7.678 0-10.607 2.929-2.928 7.678-2.928 10.606 0l10.501 10.502 16.848-16.849c2.929-2.928 7.678-2.928 10.606 0 2.929 2.93 2.929 7.678 0 10.607l-22.151 22.151c-1.463 1.464-3.382 2.197-5.302 2.197z" fill="#fff"/></g></g></g></g></svg>