<svg id="Capa_1" enable-background="new 0 0 512 512" height="512" viewBox="0 0 512 512" width="512" xmlns="http://www.w3.org/2000/svg"><g><path d="m507.488 278.415c-1.741-2.075-4.05-3.69-6.745-4.589l-117.243-39.071-127.5 42.49v193.077l122.758 40.909c1.539.513 3.141.769 4.742.769s3.203-.256 4.742-.769l112.5-37.491c6.126-2.041 10.258-7.774 10.258-14.231v-171.452c0-3.615-1.297-7.002-3.512-9.642z" fill="#8bb9ff"/><path d="m383.5 319.734v192.266c1.602 0 3.203-.256 4.742-.769l112.5-37.491c6.126-2.041 10.258-7.774 10.258-14.231v-171.452c0-3.615-1.297-7.002-3.512-9.642z" fill="#005edf"/><path d="m256 277.245v193.077l122.758 40.909c1.539.513 3.141.769 4.742.769v-192.266z" fill="#4793ff"/><g><path d="m379.988 42.849c-1.741-2.076-4.05-3.69-6.746-4.589l-112.5-37.491c-3.078-1.026-6.406-1.026-9.485 0l-112.5 37.491c-2.696.898-5.005 2.513-6.746 4.589-2.215 2.64-3.512 6.027-3.512 9.642v182.264l127.5 42.49 127.5-42.49v-182.264c.001-3.615-1.296-7.002-3.511-9.642z" fill="#ffdd54"/><path d="m383.5 52.491c0-3.615-1.297-7.002-3.512-9.642l-123.988 41.319v193.077l127.5-42.49z" fill="#ff8e00"/><g fill="#ffb454"><path d="m256 84.168-123.988-41.319c-2.215 2.64-3.512 6.027-3.512 9.642v182.264l127.5 42.49z"/><path d="m379.988 42.849c-1.741-2.076-4.05-3.69-6.746-4.589l-112.5-37.491c-1.539-.513-3.14-.769-4.742-.769v84.168z"/></g></g><g><path d="m128.5 234.755-117.243 39.072c-2.696.898-5.004 2.513-6.745 4.589-2.215 2.639-3.512 6.026-3.512 9.641v171.452c0 6.457 4.132 12.189 10.258 14.231l112.5 37.491c1.539.513 3.141.769 4.742.769 1.602 0 3.203-.256 4.742-.769l122.758-40.91v-193.076z" fill="#ff6b6b"/><path d="m4.512 278.415c-2.215 2.64-3.512 6.027-3.512 9.642v171.452c0 6.457 4.132 12.189 10.258 14.231l112.5 37.491c1.539.513 3.141.769 4.742.769v-192.266z" fill="#f90024"/><path d="m128.5 319.734v192.266c1.602 0 3.203-.256 4.742-.769l122.758-40.91v-193.076z" fill="#a50017"/></g></g></svg>