<svg id="_x33_0" enable-background="new 0 0 64 64" height="512" viewBox="0 0 64 64" width="512" xmlns="http://www.w3.org/2000/svg"><g><g><g><circle cx="46" cy="18" fill="#e6e9ed" r="16"/></g><g><circle cx="46" cy="46" fill="#e6e9ed" r="16"/></g><g><circle cx="18" cy="46" fill="#e6e9ed" r="16"/></g><g><circle cx="18" cy="18" fill="#e6e9ed" r="16"/></g><g><path d="m44 52h6v4h-6z" fill="#aab2bd"/></g><g><path d="m56 48v3c0 .55-.45 1-1 1h-5-6-5c-.55 0-1-.45-1-1v-3z" fill="#ccd1d9"/></g><g><path d="m56 39v9h-18v-8c.76-.57 1.43-1.24 2-2h15c.55 0 1 .45 1 1z" fill="#69d6f4"/></g><g><path d="m22 38v4h-2-12-2v-4z" fill="#dfb28b"/></g><g><path d="m16 50v8h-8v-16h12v8z" fill="#ecc19c"/></g><g><path d="m20 50h8v8h-12v-8z" fill="#ffeaa7"/></g><g><path d="m58 16.82v3.18c0 1.1-.9 2-2 2h-2c0-1.1-.9-2-2-2s-2 .9-2 2h-8c0-1.1-.9-2-2-2s-2 .9-2 2h-2c-1.1 0-2-.9-2-2v-3.18c0-.48.34-.89.8-.98l4.2-.84.68-3.39c.19-.94 1.01-1.61 1.96-1.61h8.72c.95 0 1.77.67 1.96 1.61l.68 3.39 4.2.84c.46.09.8.5.8.98z" fill="#b4dd7f"/></g><g><circle cx="52" cy="22" fill="#969faa" r="2"/></g><g><circle cx="40" cy="22" fill="#969faa" r="2"/></g><g><path d="m24 16v9c0 .55-.45 1-1 1h-3v-6h-4v6h-3c-.55 0-1-.45-1-1v-9z" fill="#dfb28b"/></g><g><path d="m25.52 13.59c.31.26.48.64.48 1.04 0 .76-.61 1.37-1.37 1.37h-.63-12-.63c-.76 0-1.37-.61-1.37-1.37 0-.4.17-.78.48-1.04l5.76-4.94c.49-.42 1.11-.65 1.76-.65s1.27.23 1.76.65z" fill="#ef7385"/></g><g><path d="m16 20h4v6h-4z" fill="#aab2bd"/></g><g><path d="m41.89 30.53c.07.48.11.97.11 1.47 0 2.25-.75 4.33-2 6-.57.76-1.24 1.43-2 2-1.3.98-2.84 1.64-4.53 1.89-.48.07-.97.11-1.47.11-3.62 0-6.8-1.93-8.55-4.82-.68-1.11-1.14-2.37-1.34-3.71-.07-.48-.11-.97-.11-1.47 0-5.02 3.7-9.18 8.53-9.89.48-.07.97-.11 1.47-.11 5.02 0 9.18 3.7 9.89 8.53z" fill="#fcd770"/></g></g><g><path d="m33 27.184v-2.184h-2v2h-2v3c0 1.654 1.346 3 3 3 .552 0 1 .448 1 1v1h-1c-.552 0-1-.448-1-1v-1h-2v1c0 1.302.839 2.402 2 2.816v2.184h2v-2h2v-3c0-1.654-1.346-3-3-3-.552 0-1-.448-1-1v-1h1c.552 0 1 .448 1 1v1h2v-1c0-1.302-.839-2.402-2-2.816z"/><path d="m55.626 32.003c4.582-3.154 7.374-8.377 7.374-14.003 0-9.374-7.626-17-17-17-5.802 0-10.929 2.925-13.998 7.375-3.154-4.582-8.377-7.375-14.002-7.375-9.374 0-17 7.626-17 17 0 5.802 2.925 10.928 7.374 13.997-4.582 3.154-7.374 8.377-7.374 14.003 0 9.374 7.626 17 17 17 5.802 0 10.928-2.925 13.997-7.374 3.154 4.582 8.377 7.374 14.003 7.374 9.374 0 17-7.626 17-17 0-5.802-2.925-10.928-7.374-13.997zm-9.626-29.003c8.271 0 15 6.729 15 15 0 5.279-2.786 10.158-7.298 12.865-2.315-1.184-4.928-1.865-7.702-1.865-1.127 0-2.247.112-3.341.33-.409-1.631-1.173-3.122-2.22-4.374 1.107-.164 2.011-.928 2.377-1.956h6.369c.414 1.161 1.514 2 2.816 2s2.402-.839 2.816-2h1.183c1.654 0 3-1.346 3-3v-3.181c0-.949-.676-1.773-1.607-1.961l-3.543-.708-.548-2.738c-.279-1.397-1.516-2.412-2.942-2.412h-8.72c-1.426 0-2.663 1.015-2.941 2.411l-.549 2.739-3.544.708c-.93.188-1.606 1.012-1.606 1.961v3.181c0 .378.078.736.206 1.07-.397-.044-.798-.07-1.206-.07-.233 0-.46.021-.689.035-.204-.993-.311-2.01-.311-3.035 0-8.271 6.729-15 15-15zm-1 52v-2h4v2zm-6-4v-2h16v2zm-7-10c-4.963 0-9-4.037-9-9s4.037-9 9-9 9 4.037 9 9-4.037 9-9 9zm-13-16h-2v-4h2zm-4-6v6h-2v-8h10v8h-2v-6zm9.63-4h-13.26c-.204 0-.37-.166-.37-.37 0-.107.047-.21.129-.281l5.764-4.939c.307-.264.701-.41 1.107-.41s.8.146 1.108.409l5.762 4.939c.083.072.13.174.13.282 0 .204-.166.37-.37.37zm30.186 6c-.414-1.161-1.514-2-2.816-2s-2.402.839-2.816 2h-6.369c-.414-1.161-1.514-2-2.816-2s-2.402.839-2.816 2h-1.183c-.552 0-1-.448-1-1v-3.181l4.85-.97.81-4.047c.092-.464.504-.802.98-.802h8.721c.476 0 .888.338.98.804l.81 4.046 4.85.97v3.18c0 .552-.448 1-1 1zm-1.816 1c0 .552-.448 1-1 1s-1-.448-1-1 .448-1 1-1 1 .448 1 1zm-14 0c0-.552.448-1 1-1s1 .448 1 1-.448 1-1 1-1-.448-1-1zm16 25h-16v-6.521c.538-.445 1.033-.94 1.479-1.479h14.521zm-52-29c0-8.271 6.729-15 15-15 5.279 0 10.157 2.787 12.864 7.298-1.183 2.316-1.864 4.928-1.864 7.702 0 1.127.112 2.247.33 3.341-1.611.404-3.087 1.152-4.33 2.18v-6.559c1.13-.179 2-1.153 2-2.333 0-.691-.302-1.348-.828-1.799l-5.762-4.938c-1.34-1.15-3.481-1.15-4.819 0l-5.764 4.939c-.525.451-.827 1.107-.827 1.799 0 1.18.87 2.153 2 2.333v8.037c0 1.103.897 2 2 2h9.214c-.77 1.502-1.214 3.199-1.214 5 0 .233.021.46.035.689-.993.204-2.01.311-3.035.311-8.271 0-15-6.729-15-15zm7.298 15.135c2.315 1.184 4.928 1.865 7.702 1.865 1.127 0 2.247-.112 3.341-.33.205.816.497 1.597.873 2.33h-16.204c1.15-1.532 2.597-2.85 4.288-3.865zm16.702 23.865h-10v-6h10zm-12-8v8h-6v-14h10v6zm-8-8v-2h14v2zm-4 5c0-2.669.714-5.234 2-7.471v4.471h2v13.164c-2.474-2.676-4-6.241-4-10.164zm7.548 13h14.903c-2.198 1.265-4.738 2-7.452 2s-5.252-.735-7.451-2zm18.452-2.836v-7.164h-8v-6h2v-4.695c1.992 2.834 5.28 4.695 9 4.695.233 0 .46-.021.689-.035.204.993.311 2.01.311 3.035 0 3.923-1.526 7.488-4 10.164zm17 4.836c-5.279 0-10.158-2.786-12.865-7.298 1.184-2.315 1.865-4.928 1.865-7.702 0-1.127-.112-2.247-.33-3.341.816-.205 1.597-.497 2.33-.873v9.214c0 1.103.897 2 2 2h4v2h-2v2h12v-2h-2v-2h4c1.103 0 2-.897 2-2v-12c0-1.103-.897-2-2-2h-13.214c.77-1.502 1.214-3.199 1.214-5 0-.233-.021-.46-.035-.689.993-.204 2.01-.311 3.035-.311 8.271 0 15 6.729 15 15s-6.729 15-15 15z"/><path d="m19 53h2v2h-2z"/><path d="m11 53h2v2h-2z"/><path d="m11 49h2v2h-2z"/><path d="m11 45h2v2h-2z"/><path d="m15 45h2v2h-2z"/><path d="m23 53h2v2h-2z"/></g></g></svg>