<svg id="Layer_5" enable-background="new 0 0 64 64" height="512" viewBox="0 0 64 64" width="512" xmlns="http://www.w3.org/2000/svg"><g><g><path d="m4 20h7v36h-7z" fill="#f0bc5e"/></g><g><path d="m45 12h18v13h-18z" fill="#f0bc5e"/></g><g><path d="m51.854 29h-2.198c-3.381 0-6.559-1.316-8.95-3.707l-.706-.707-.707.707c-2.234 2.234-5.16 3.515-8.293 3.675v-14.152c1.161-.414 2-1.514 2-2.816v-2c0-1.654-1.346-3-3-3h-1v-3c0-1.654-1.346-3-3-3h-18c-1.654 0-3 1.346-3 3v3h-1c-1.654 0-3 1.346-3 3v2c0 1.302.839 2.402 2 2.816v41.184c0 3.86 3.14 7 7 7h14c2.682 0 5.086-1.547 6.253-3.881 1.466.93 3.23 1.889 5.305 2.875 1.404.668 2.899 1.006 4.442 1.006s3.038-.338 4.442-1.006c7.006-3.329 10.558-6.355 10.558-8.994 0-4.032-2.889-22.377-3.012-23.156zm-44.854-25c0-.551.449-1 1-1h18c.551 0 1 .449 1 1v3h-20zm-4 8v-2c0-.551.449-1 1-1h26c.551 0 1 .449 1 1v2c0 .551-.449 1-1 1h-26c-.551 0-1-.449-1-1zm21 49h-14c-2.414 0-4.434-1.721-4.899-4h7.899v-2h-8v-2h6v-2h-6v-2h8v-2h-8v-2h6v-2h-6v-2h8v-2h-8v-2h6v-2h-6v-2h8v-2h-8v-2h6v-2h-6v-2h8v-2h-8v-2h6v-2h-6v-4h24v14h-.854l-.133.844c-.124.779-3.013 19.124-3.013 23.156 0 1.533 1.207 3.197 3.585 4.975-.78 1.808-2.573 3.025-4.585 3.025zm19.583-.812c-2.268 1.078-4.899 1.078-7.167 0-5.72-2.719-9.416-5.54-9.416-7.188 0-3.402 2.278-18.28 2.856-22h.487c3.59 0 6.983-1.282 9.657-3.63 2.673 2.348 6.066 3.63 9.657 3.63h.487c.578 3.72 2.856 18.598 2.856 22 0 1.648-3.696 4.469-9.417 7.188z"/><path d="m40 32.137-6.754 10.613c-.815 1.281-1.246 2.761-1.246 4.28 0 4.395 3.575 7.97 8.03 7.97 4.395 0 7.97-3.575 7.97-7.97 0-1.519-.431-2.999-1.246-4.279zm-.03 20.863c-3.292 0-5.97-2.678-5.97-5.97 0-1.138.323-2.246.934-3.206l5.066-7.961 5.066 7.962c.611.959.934 2.067.934 3.205 0 3.292-2.678 5.97-6.03 5.97z"/><path d="m45 11h18v2h-18z"/><path d="m45 15h18v2h-18z"/><path d="m45 19h18v2h-18z"/><path d="m45 23h2v2h-2z"/><path d="m57 23h2v2h-2z"/><path d="m61 23h2v2h-2z"/><path d="m53 23h2v2h-2z"/><path d="m49 23h2v2h-2z"/></g></g></svg>