<?xml version="1.0" encoding="UTF-8"?><svg xmlns="http://www.w3.org/2000/svg" xmlns:xlink="http://www.w3.org/1999/xlink" contentScriptType="text/ecmascript" width="375pt" zoomAndPan="magnify" contentStyleType="text/css" viewBox="0 0 375 374.999991" height="374.999991pt" preserveAspectRatio="xMidYMid meet" version="1.2"><defs><g/><clipPath xml:id="clip1" id="clip1"><path d="M 23 158.09375 L 181.25 158.09375 L 181.25 275.84375 L 23 275.84375 Z M 23 158.09375 "/></clipPath><clipPath xml:id="clip2" id="clip2"><path d="M 35.324219 275.792969 L 100.601562 275.792969 C 101.917969 275.800781 103.234375 275.722656 104.542969 275.5625 C 105.851562 275.402344 107.144531 275.160156 108.421875 274.832031 C 109.703125 274.507812 110.953125 274.101562 112.179688 273.617188 C 113.40625 273.132812 114.597656 272.570312 115.753906 271.933594 C 116.910156 271.296875 118.019531 270.589844 119.085938 269.8125 C 120.152344 269.035156 121.164062 268.191406 122.121094 267.285156 C 123.078125 266.378906 123.976562 265.414062 124.8125 264.394531 C 125.648438 263.371094 126.417969 262.304688 127.117188 261.183594 L 179.476562 176.300781 C 184.402344 168.308594 178.496094 158.140625 168.929688 158.140625 L 103.214844 158.140625 C 101.929688 158.136719 100.648438 158.210938 99.371094 158.367188 C 98.09375 158.527344 96.832031 158.761719 95.585938 159.082031 C 94.339844 159.398438 93.121094 159.792969 91.921875 160.269531 C 90.726562 160.742188 89.566406 161.289062 88.4375 161.910156 C 87.3125 162.53125 86.230469 163.21875 85.191406 163.976562 C 84.152344 164.738281 83.164062 165.558594 82.230469 166.441406 C 81.296875 167.328125 80.421875 168.265625 79.605469 169.261719 C 78.789062 170.257812 78.039062 171.300781 77.359375 172.394531 L 24.777344 257.664062 C 19.851562 265.625 25.761719 275.792969 35.324219 275.792969 Z M 35.324219 275.792969 "/></clipPath><linearGradient x1="38.139018" gradientTransform="matrix(0.46035,0,0,0.460752,22.999628,158.141656)" xmlns:xlink="http://www.w3.org/1999/xlink" y1="-31.964265" x2="305.621204" gradientUnits="userSpaceOnUse" y2="287.315055" xlink:type="simple" xlink:actuate="onLoad" id="linear0" xlink:show="other" xml:id="linear0"><stop style="stop-color:rgb(59.999084%,0%,0%);stop-opacity:1;" offset="0"/><stop style="stop-color:rgb(59.999084%,0%,0%);stop-opacity:1;" offset="0.125"/><stop style="stop-color:rgb(59.999084%,0%,0%);stop-opacity:1;" offset="0.1875"/><stop style="stop-color:rgb(59.999084%,0%,0%);stop-opacity:1;" offset="0.21875"/><stop style="stop-color:rgb(59.999084%,0%,0%);stop-opacity:1;" offset="0.234375"/><stop style="stop-color:rgb(60.098267%,0%,0%);stop-opacity:1;" offset="0.242188"/><stop style="stop-color:rgb(60.481262%,0%,0%);stop-opacity:1;" offset="0.246094"/><stop style="stop-color:rgb(60.766602%,0%,0%);stop-opacity:1;" offset="0.25"/><stop style="stop-color:rgb(61.050415%,0%,0%);stop-opacity:1;" offset="0.253906"/><stop style="stop-color:rgb(61.334229%,0%,0%);stop-opacity:1;" offset="0.257812"/><stop style="stop-color:rgb(61.618042%,0%,0%);stop-opacity:1;" offset="0.261719"/><stop style="stop-color:rgb(61.903381%,0%,0%);stop-opacity:1;" offset="0.265625"/><stop style="stop-color:rgb(62.187195%,0%,0%);stop-opacity:1;" offset="0.269531"/><stop style="stop-color:rgb(62.472534%,0%,0%);stop-opacity:1;" offset="0.273438"/><stop style="stop-color:rgb(62.756348%,0%,0%);stop-opacity:1;" offset="0.277344"/><stop style="stop-color:rgb(63.040161%,0%,0%);stop-opacity:1;" offset="0.28125"/><stop style="stop-color:rgb(63.323975%,0%,0%);stop-opacity:1;" offset="0.285156"/><stop style="stop-color:rgb(63.609314%,0%,0%);stop-opacity:1;" offset="0.289063"/><stop style="stop-color:rgb(63.893127%,0%,0%);stop-opacity:1;" offset="0.292969"/><stop style="stop-color:rgb(64.176941%,0%,0%);stop-opacity:1;" offset="0.296875"/><stop style="stop-color:rgb(64.460754%,0%,0%);stop-opacity:1;" offset="0.300781"/><stop style="stop-color:rgb(64.746094%,0%,0%);stop-opacity:1;" offset="0.304688"/><stop style="stop-color:rgb(65.029907%,0%,0%);stop-opacity:1;" offset="0.308594"/><stop style="stop-color:rgb(65.315247%,0%,0%);stop-opacity:1;" offset="0.3125"/><stop style="stop-color:rgb(65.59906%,0%,0%);stop-opacity:1;" offset="0.316406"/><stop style="stop-color:rgb(65.882874%,0%,0%);stop-opacity:1;" offset="0.320313"/><stop style="stop-color:rgb(66.166687%,0%,0%);stop-opacity:1;" offset="0.324219"/><stop style="stop-color:rgb(66.452026%,0%,0%);stop-opacity:1;" offset="0.328125"/><stop style="stop-color:rgb(66.73584%,0%,0%);stop-opacity:1;" offset="0.332031"/><stop style="stop-color:rgb(67.019653%,0%,0%);stop-opacity:1;" offset="0.335938"/><stop style="stop-color:rgb(67.303467%,0%,0%);stop-opacity:1;" offset="0.339844"/><stop style="stop-color:rgb(67.588806%,0%,0%);stop-opacity:1;" offset="0.34375"/><stop style="stop-color:rgb(67.87262%,0%,0%);stop-opacity:1;" offset="0.347656"/><stop style="stop-color:rgb(68.157959%,0%,0%);stop-opacity:1;" offset="0.351562"/><stop style="stop-color:rgb(68.441772%,0%,0%);stop-opacity:1;" offset="0.355469"/><stop style="stop-color:rgb(68.725586%,0%,0%);stop-opacity:1;" offset="0.359375"/><stop style="stop-color:rgb(69.009399%,0%,0%);stop-opacity:1;" offset="0.363281"/><stop style="stop-color:rgb(69.294739%,0%,0%);stop-opacity:1;" offset="0.367188"/><stop style="stop-color:rgb(69.578552%,0%,0%);stop-opacity:1;" offset="0.371094"/><stop style="stop-color:rgb(69.863892%,0%,0%);stop-opacity:1;" offset="0.375"/><stop style="stop-color:rgb(70.147705%,0%,0%);stop-opacity:1;" offset="0.378906"/><stop style="stop-color:rgb(70.431519%,0%,0%);stop-opacity:1;" offset="0.382812"/><stop style="stop-color:rgb(70.715332%,0%,0%);stop-opacity:1;" offset="0.386719"/><stop style="stop-color:rgb(71.000671%,0%,0%);stop-opacity:1;" offset="0.390625"/><stop style="stop-color:rgb(71.284485%,0%,0%);stop-opacity:1;" offset="0.394531"/><stop style="stop-color:rgb(71.568298%,0%,0%);stop-opacity:1;" offset="0.398438"/><stop style="stop-color:rgb(71.852112%,0%,0%);stop-opacity:1;" offset="0.402344"/><stop style="stop-color:rgb(72.137451%,0%,0%);stop-opacity:1;" offset="0.40625"/><stop style="stop-color:rgb(72.421265%,0%,0%);stop-opacity:1;" offset="0.410156"/><stop style="stop-color:rgb(72.706604%,0%,0%);stop-opacity:1;" offset="0.414062"/><stop style="stop-color:rgb(72.990417%,0%,0%);stop-opacity:1;" offset="0.417969"/><stop style="stop-color:rgb(73.274231%,0%,0%);stop-opacity:1;" offset="0.421875"/><stop style="stop-color:rgb(73.558044%,0%,0%);stop-opacity:1;" offset="0.425781"/><stop style="stop-color:rgb(73.843384%,0%,0%);stop-opacity:1;" offset="0.429688"/><stop style="stop-color:rgb(74.127197%,0%,0%);stop-opacity:1;" offset="0.433594"/><stop style="stop-color:rgb(74.411011%,0%,0%);stop-opacity:1;" offset="0.4375"/><stop style="stop-color:rgb(74.694824%,0%,0%);stop-opacity:1;" offset="0.441406"/><stop style="stop-color:rgb(74.980164%,0%,0%);stop-opacity:1;" offset="0.445312"/><stop style="stop-color:rgb(75.263977%,0%,0%);stop-opacity:1;" offset="0.449219"/><stop style="stop-color:rgb(75.549316%,0%,0%);stop-opacity:1;" offset="0.453125"/><stop style="stop-color:rgb(75.83313%,0%,0%);stop-opacity:1;" offset="0.457031"/><stop style="stop-color:rgb(76.116943%,0%,0%);stop-opacity:1;" offset="0.460938"/><stop style="stop-color:rgb(76.400757%,0%,0%);stop-opacity:1;" offset="0.464844"/><stop style="stop-color:rgb(76.686096%,0%,0%);stop-opacity:1;" offset="0.46875"/><stop style="stop-color:rgb(76.96991%,0%,0%);stop-opacity:1;" offset="0.472656"/><stop style="stop-color:rgb(77.253723%,0%,0%);stop-opacity:1;" offset="0.476563"/><stop style="stop-color:rgb(77.537537%,0%,0%);stop-opacity:1;" offset="0.480469"/><stop style="stop-color:rgb(77.822876%,0%,0%);stop-opacity:1;" offset="0.484375"/><stop style="stop-color:rgb(78.106689%,0%,0%);stop-opacity:1;" offset="0.488281"/><stop style="stop-color:rgb(78.392029%,0%,0%);stop-opacity:1;" offset="0.492188"/><stop style="stop-color:rgb(78.675842%,0%,0%);stop-opacity:1;" offset="0.496094"/><stop style="stop-color:rgb(78.959656%,0%,0%);stop-opacity:1;" offset="0.5"/><stop style="stop-color:rgb(79.243469%,0%,0%);stop-opacity:1;" offset="0.503906"/><stop style="stop-color:rgb(79.528809%,0%,0%);stop-opacity:1;" offset="0.507813"/><stop style="stop-color:rgb(79.812622%,0%,0%);stop-opacity:1;" offset="0.511719"/><stop style="stop-color:rgb(80.096436%,0%,0%);stop-opacity:1;" offset="0.515625"/><stop style="stop-color:rgb(80.380249%,0%,0%);stop-opacity:1;" offset="0.519531"/><stop style="stop-color:rgb(80.665588%,0%,0%);stop-opacity:1;" offset="0.523438"/><stop style="stop-color:rgb(80.949402%,0%,0%);stop-opacity:1;" offset="0.527344"/><stop style="stop-color:rgb(81.234741%,0%,0%);stop-opacity:1;" offset="0.53125"/><stop style="stop-color:rgb(81.518555%,0%,0%);stop-opacity:1;" offset="0.535156"/><stop style="stop-color:rgb(81.802368%,0%,0%);stop-opacity:1;" offset="0.539063"/><stop style="stop-color:rgb(82.086182%,0%,0%);stop-opacity:1;" offset="0.542969"/><stop style="stop-color:rgb(82.371521%,0%,0%);stop-opacity:1;" offset="0.546875"/><stop style="stop-color:rgb(82.655334%,0%,0%);stop-opacity:1;" offset="0.550781"/><stop style="stop-color:rgb(82.939148%,0%,0%);stop-opacity:1;" offset="0.554688"/><stop style="stop-color:rgb(83.222961%,0%,0%);stop-opacity:1;" offset="0.558594"/><stop style="stop-color:rgb(83.508301%,0%,0%);stop-opacity:1;" offset="0.5625"/><stop style="stop-color:rgb(83.792114%,0%,0%);stop-opacity:1;" offset="0.566406"/><stop style="stop-color:rgb(84.077454%,0%,0%);stop-opacity:1;" offset="0.570312"/><stop style="stop-color:rgb(84.361267%,0%,0%);stop-opacity:1;" offset="0.574219"/><stop style="stop-color:rgb(84.645081%,0%,0%);stop-opacity:1;" offset="0.578125"/><stop style="stop-color:rgb(84.928894%,0%,0%);stop-opacity:1;" offset="0.582031"/><stop style="stop-color:rgb(85.214233%,0%,0%);stop-opacity:1;" offset="0.585938"/><stop style="stop-color:rgb(85.498047%,0%,0%);stop-opacity:1;" offset="0.589844"/><stop style="stop-color:rgb(85.78186%,0%,0%);stop-opacity:1;" offset="0.59375"/><stop style="stop-color:rgb(86.065674%,0%,0%);stop-opacity:1;" offset="0.597656"/><stop style="stop-color:rgb(86.351013%,0%,0%);stop-opacity:1;" offset="0.601562"/><stop style="stop-color:rgb(86.634827%,0%,0%);stop-opacity:1;" offset="0.605469"/><stop style="stop-color:rgb(86.920166%,0%,0%);stop-opacity:1;" offset="0.609375"/><stop style="stop-color:rgb(87.203979%,0%,0%);stop-opacity:1;" offset="0.613281"/><stop style="stop-color:rgb(87.487793%,0%,0%);stop-opacity:1;" offset="0.617188"/><stop style="stop-color:rgb(87.771606%,0%,0%);stop-opacity:1;" offset="0.621094"/><stop style="stop-color:rgb(88.056946%,0%,0%);stop-opacity:1;" offset="0.625"/><stop style="stop-color:rgb(88.340759%,0%,0%);stop-opacity:1;" offset="0.628906"/><stop style="stop-color:rgb(88.624573%,0%,0%);stop-opacity:1;" offset="0.632812"/><stop style="stop-color:rgb(88.908386%,0%,0%);stop-opacity:1;" offset="0.636719"/><stop style="stop-color:rgb(89.193726%,0%,0%);stop-opacity:1;" offset="0.640625"/><stop style="stop-color:rgb(89.477539%,0%,0%);stop-opacity:1;" offset="0.644531"/><stop style="stop-color:rgb(89.762878%,0%,0%);stop-opacity:1;" offset="0.648438"/><stop style="stop-color:rgb(90.046692%,0%,0%);stop-opacity:1;" offset="0.652344"/><stop style="stop-color:rgb(90.330505%,0%,0%);stop-opacity:1;" offset="0.65625"/><stop style="stop-color:rgb(90.614319%,0%,0%);stop-opacity:1;" offset="0.660156"/><stop style="stop-color:rgb(90.899658%,0%,0%);stop-opacity:1;" offset="0.664063"/><stop style="stop-color:rgb(91.183472%,0%,0%);stop-opacity:1;" offset="0.667969"/><stop style="stop-color:rgb(91.467285%,0%,0%);stop-opacity:1;" offset="0.671875"/><stop style="stop-color:rgb(91.751099%,0%,0%);stop-opacity:1;" offset="0.675781"/><stop style="stop-color:rgb(92.036438%,0%,0%);stop-opacity:1;" offset="0.679688"/><stop style="stop-color:rgb(92.320251%,0%,0%);stop-opacity:1;" offset="0.683594"/><stop style="stop-color:rgb(92.605591%,0%,0%);stop-opacity:1;" offset="0.6875"/><stop style="stop-color:rgb(92.889404%,0%,0%);stop-opacity:1;" offset="0.691406"/><stop style="stop-color:rgb(93.173218%,0%,0%);stop-opacity:1;" offset="0.695313"/><stop style="stop-color:rgb(93.457031%,0%,0%);stop-opacity:1;" offset="0.699219"/><stop style="stop-color:rgb(93.742371%,0%,0%);stop-opacity:1;" offset="0.703125"/><stop style="stop-color:rgb(94.026184%,0%,0%);stop-opacity:1;" offset="0.707031"/><stop style="stop-color:rgb(94.311523%,0%,0%);stop-opacity:1;" offset="0.710938"/><stop style="stop-color:rgb(94.595337%,0%,0%);stop-opacity:1;" offset="0.714844"/><stop style="stop-color:rgb(94.87915%,0%,0%);stop-opacity:1;" offset="0.71875"/><stop style="stop-color:rgb(95.162964%,0%,0%);stop-opacity:1;" offset="0.722656"/><stop style="stop-color:rgb(95.448303%,0%,0%);stop-opacity:1;" offset="0.726563"/><stop style="stop-color:rgb(95.732117%,0%,0%);stop-opacity:1;" offset="0.730469"/><stop style="stop-color:rgb(96.01593%,0%,0%);stop-opacity:1;" offset="0.734375"/><stop style="stop-color:rgb(96.299744%,0%,0%);stop-opacity:1;" offset="0.738281"/><stop style="stop-color:rgb(96.585083%,0%,0%);stop-opacity:1;" offset="0.742188"/><stop style="stop-color:rgb(96.868896%,0%,0%);stop-opacity:1;" offset="0.746094"/><stop style="stop-color:rgb(97.154236%,0%,0%);stop-opacity:1;" offset="0.75"/><stop style="stop-color:rgb(97.438049%,0%,0%);stop-opacity:1;" offset="0.753906"/><stop style="stop-color:rgb(97.721863%,0%,0%);stop-opacity:1;" offset="0.757812"/><stop style="stop-color:rgb(98.005676%,0%,0%);stop-opacity:1;" offset="0.761719"/><stop style="stop-color:rgb(98.291016%,0%,0%);stop-opacity:1;" offset="0.765625"/><stop style="stop-color:rgb(98.574829%,0%,0%);stop-opacity:1;" offset="0.769531"/><stop style="stop-color:rgb(98.858643%,0%,0%);stop-opacity:1;" offset="0.773438"/><stop style="stop-color:rgb(99.142456%,0%,0%);stop-opacity:1;" offset="0.777344"/><stop style="stop-color:rgb(99.427795%,0%,0%);stop-opacity:1;" offset="0.78125"/><stop style="stop-color:rgb(99.711609%,0%,0%);stop-opacity:1;" offset="0.785156"/><stop style="stop-color:rgb(99.996948%,0%,0%);stop-opacity:1;" offset="0.789062"/><stop style="stop-color:rgb(99.998474%,0%,0%);stop-opacity:1;" offset="0.796875"/><stop style="stop-color:rgb(100%,0%,0%);stop-opacity:1;" offset="0.8125"/><stop style="stop-color:rgb(100%,0%,0%);stop-opacity:1;" offset="0.875"/><stop style="stop-color:rgb(100%,0%,0%);stop-opacity:1;" offset="1"/></linearGradient><filter x="0%" y="0%" width="100%" xmlns:xlink="http://www.w3.org/1999/xlink" xlink:type="simple" filterUnits="objectBoundingBox" xlink:actuate="onLoad" id="alpha" height="100%" xlink:show="other" xml:id="alpha"><feColorMatrix values="0 0 0 0 1 0 0 0 0 1 0 0 0 0 1 0 0 0 1 0" type="matrix" in="SourceGraphic"/></filter><clipPath xml:id="clip4" id="clip4"><path d="M 0.25 1.28125 L 158.5 1.28125 L 158.5 119 L 0.25 119 Z M 0.25 1.28125 "/></clipPath><clipPath xml:id="clip5" id="clip5"><path d="M 12.574219 118.980469 L 77.851562 118.980469 C 79.171875 118.988281 80.484375 118.910156 81.792969 118.75 C 83.101562 118.589844 84.394531 118.34375 85.675781 118.019531 C 86.953125 117.695312 88.203125 117.289062 89.429688 116.804688 C 90.65625 116.316406 91.847656 115.757812 93.003906 115.121094 C 94.160156 114.484375 95.269531 113.777344 96.335938 113 C 97.402344 112.222656 98.414062 111.378906 99.371094 110.472656 C 100.328125 109.566406 101.226562 108.601562 102.0625 107.582031 C 102.898438 106.558594 103.667969 105.488281 104.367188 104.371094 L 156.726562 19.484375 C 161.652344 11.496094 155.746094 1.328125 146.179688 1.328125 L 80.464844 1.328125 C 79.179688 1.324219 77.898438 1.398438 76.621094 1.554688 C 75.34375 1.710938 74.082031 1.949219 72.835938 2.269531 C 71.589844 2.585938 70.371094 2.980469 69.171875 3.453125 C 67.976562 3.925781 66.816406 4.472656 65.691406 5.09375 C 64.5625 5.714844 63.480469 6.40625 62.441406 7.164062 C 61.402344 7.921875 60.414062 8.746094 59.480469 9.628906 C 58.546875 10.511719 57.671875 11.453125 56.855469 12.449219 C 56.039062 13.445312 55.289062 14.488281 54.609375 15.578125 L 2.027344 100.851562 C -2.898438 108.8125 3.011719 118.980469 12.574219 118.980469 Z M 12.574219 118.980469 "/></clipPath><linearGradient x1="0" gradientTransform="matrix(0.46035,0,0,0.460752,0.250004,1.328075)" xmlns:xlink="http://www.w3.org/1999/xlink" y1="127.68" x2="343.760021" gradientUnits="userSpaceOnUse" y2="127.68" xlink:type="simple" xlink:actuate="onLoad" id="linear1" xlink:show="other" xml:id="linear1"><stop style="stop-color:rgb(100%,34.098816%,34.098816%);stop-opacity:1;" offset="0"/><stop style="stop-color:rgb(100%,33.999634%,33.999634%);stop-opacity:1;" offset="0.0078125"/><stop style="stop-color:rgb(100%,33.799744%,33.799744%);stop-opacity:1;" offset="0.015625"/><stop style="stop-color:rgb(100%,33.601379%,33.601379%);stop-opacity:1;" offset="0.0234375"/><stop style="stop-color:rgb(100%,33.401489%,33.401489%);stop-opacity:1;" offset="0.03125"/><stop style="stop-color:rgb(100%,33.201599%,33.201599%);stop-opacity:1;" offset="0.0390625"/><stop style="stop-color:rgb(100%,33.003235%,33.003235%);stop-opacity:1;" offset="0.046875"/><stop style="stop-color:rgb(100%,32.803345%,32.803345%);stop-opacity:1;" offset="0.0546875"/><stop style="stop-color:rgb(100%,32.60498%,32.60498%);stop-opacity:1;" offset="0.0625"/><stop style="stop-color:rgb(100%,32.40509%,32.40509%);stop-opacity:1;" offset="0.0703125"/><stop style="stop-color:rgb(100%,32.206726%,32.206726%);stop-opacity:1;" offset="0.078125"/><stop style="stop-color:rgb(100%,32.006836%,32.006836%);stop-opacity:1;" offset="0.0859375"/><stop style="stop-color:rgb(100%,31.808472%,31.808472%);stop-opacity:1;" offset="0.09375"/><stop style="stop-color:rgb(100%,31.608582%,31.608582%);stop-opacity:1;" offset="0.101562"/><stop style="stop-color:rgb(100%,31.408691%,31.408691%);stop-opacity:1;" offset="0.109375"/><stop style="stop-color:rgb(100%,31.210327%,31.210327%);stop-opacity:1;" offset="0.117188"/><stop style="stop-color:rgb(100%,31.010437%,31.010437%);stop-opacity:1;" offset="0.125"/><stop style="stop-color:rgb(100%,30.812073%,30.812073%);stop-opacity:1;" offset="0.132813"/><stop style="stop-color:rgb(100%,30.612183%,30.612183%);stop-opacity:1;" offset="0.140625"/><stop style="stop-color:rgb(100%,30.413818%,30.413818%);stop-opacity:1;" offset="0.148438"/><stop style="stop-color:rgb(100%,30.213928%,30.213928%);stop-opacity:1;" offset="0.15625"/><stop style="stop-color:rgb(100%,30.015564%,30.015564%);stop-opacity:1;" offset="0.164062"/><stop style="stop-color:rgb(100%,29.815674%,29.815674%);stop-opacity:1;" offset="0.171875"/><stop style="stop-color:rgb(100%,29.615784%,29.615784%);stop-opacity:1;" offset="0.179688"/><stop style="stop-color:rgb(100%,29.417419%,29.417419%);stop-opacity:1;" offset="0.1875"/><stop style="stop-color:rgb(100%,29.217529%,29.217529%);stop-opacity:1;" offset="0.195312"/><stop style="stop-color:rgb(100%,29.019165%,29.019165%);stop-opacity:1;" offset="0.203125"/><stop style="stop-color:rgb(100%,28.819275%,28.819275%);stop-opacity:1;" offset="0.210938"/><stop style="stop-color:rgb(100%,28.620911%,28.620911%);stop-opacity:1;" offset="0.21875"/><stop style="stop-color:rgb(100%,28.421021%,28.421021%);stop-opacity:1;" offset="0.226563"/><stop style="stop-color:rgb(100%,28.22113%,28.22113%);stop-opacity:1;" offset="0.234375"/><stop style="stop-color:rgb(100%,28.022766%,28.022766%);stop-opacity:1;" offset="0.242188"/><stop style="stop-color:rgb(100%,27.822876%,27.822876%);stop-opacity:1;" offset="0.25"/><stop style="stop-color:rgb(100%,27.624512%,27.624512%);stop-opacity:1;" offset="0.257812"/><stop style="stop-color:rgb(100%,27.424622%,27.424622%);stop-opacity:1;" offset="0.265625"/><stop style="stop-color:rgb(100%,27.226257%,27.226257%);stop-opacity:1;" offset="0.273438"/><stop style="stop-color:rgb(100%,27.026367%,27.026367%);stop-opacity:1;" offset="0.28125"/><stop style="stop-color:rgb(100%,26.828003%,26.828003%);stop-opacity:1;" offset="0.289062"/><stop style="stop-color:rgb(100%,26.628113%,26.628113%);stop-opacity:1;" offset="0.296875"/><stop style="stop-color:rgb(100%,26.428223%,26.428223%);stop-opacity:1;" offset="0.304688"/><stop style="stop-color:rgb(100%,26.229858%,26.229858%);stop-opacity:1;" offset="0.3125"/><stop style="stop-color:rgb(100%,26.029968%,26.029968%);stop-opacity:1;" offset="0.320312"/><stop style="stop-color:rgb(100%,25.831604%,25.831604%);stop-opacity:1;" offset="0.328125"/><stop style="stop-color:rgb(100%,25.631714%,25.631714%);stop-opacity:1;" offset="0.335938"/><stop style="stop-color:rgb(100%,25.43335%,25.43335%);stop-opacity:1;" offset="0.34375"/><stop style="stop-color:rgb(100%,25.233459%,25.233459%);stop-opacity:1;" offset="0.351562"/><stop style="stop-color:rgb(100%,25.035095%,25.035095%);stop-opacity:1;" offset="0.359375"/><stop style="stop-color:rgb(100%,24.835205%,24.835205%);stop-opacity:1;" offset="0.367188"/><stop style="stop-color:rgb(100%,24.635315%,24.635315%);stop-opacity:1;" offset="0.375"/><stop style="stop-color:rgb(100%,24.436951%,24.436951%);stop-opacity:1;" offset="0.382812"/><stop style="stop-color:rgb(100%,24.237061%,24.237061%);stop-opacity:1;" offset="0.390625"/><stop style="stop-color:rgb(100%,24.038696%,24.038696%);stop-opacity:1;" offset="0.398438"/><stop style="stop-color:rgb(100%,23.838806%,23.838806%);stop-opacity:1;" offset="0.40625"/><stop style="stop-color:rgb(100%,23.640442%,23.640442%);stop-opacity:1;" offset="0.414062"/><stop style="stop-color:rgb(100%,23.440552%,23.440552%);stop-opacity:1;" offset="0.421875"/><stop style="stop-color:rgb(100%,23.240662%,23.240662%);stop-opacity:1;" offset="0.429688"/><stop style="stop-color:rgb(100%,23.042297%,23.042297%);stop-opacity:1;" offset="0.4375"/><stop style="stop-color:rgb(100%,22.842407%,22.842407%);stop-opacity:1;" offset="0.445312"/><stop style="stop-color:rgb(100%,22.644043%,22.644043%);stop-opacity:1;" offset="0.453125"/><stop style="stop-color:rgb(100%,22.444153%,22.444153%);stop-opacity:1;" offset="0.460938"/><stop style="stop-color:rgb(100%,22.245789%,22.245789%);stop-opacity:1;" offset="0.46875"/><stop style="stop-color:rgb(100%,22.045898%,22.045898%);stop-opacity:1;" offset="0.476562"/><stop style="stop-color:rgb(100%,21.847534%,21.847534%);stop-opacity:1;" offset="0.484375"/><stop style="stop-color:rgb(100%,21.647644%,21.647644%);stop-opacity:1;" offset="0.492188"/><stop style="stop-color:rgb(100%,21.447754%,21.447754%);stop-opacity:1;" offset="0.5"/><stop style="stop-color:rgb(100%,21.24939%,21.24939%);stop-opacity:1;" offset="0.507812"/><stop style="stop-color:rgb(100%,21.0495%,21.0495%);stop-opacity:1;" offset="0.515625"/><stop style="stop-color:rgb(100%,20.851135%,20.851135%);stop-opacity:1;" offset="0.523438"/><stop style="stop-color:rgb(100%,20.651245%,20.651245%);stop-opacity:1;" offset="0.53125"/><stop style="stop-color:rgb(100%,20.452881%,20.452881%);stop-opacity:1;" offset="0.539063"/><stop style="stop-color:rgb(100%,20.252991%,20.252991%);stop-opacity:1;" offset="0.546875"/><stop style="stop-color:rgb(100%,20.054626%,20.054626%);stop-opacity:1;" offset="0.554688"/><stop style="stop-color:rgb(100%,19.854736%,19.854736%);stop-opacity:1;" offset="0.5625"/><stop style="stop-color:rgb(100%,19.654846%,19.654846%);stop-opacity:1;" offset="0.570313"/><stop style="stop-color:rgb(100%,19.456482%,19.456482%);stop-opacity:1;" offset="0.578125"/><stop style="stop-color:rgb(100%,19.256592%,19.256592%);stop-opacity:1;" offset="0.585938"/><stop style="stop-color:rgb(100%,19.058228%,19.058228%);stop-opacity:1;" offset="0.59375"/><stop style="stop-color:rgb(100%,18.858337%,18.858337%);stop-opacity:1;" offset="0.601562"/><stop style="stop-color:rgb(100%,18.659973%,18.659973%);stop-opacity:1;" offset="0.609375"/><stop style="stop-color:rgb(100%,18.460083%,18.460083%);stop-opacity:1;" offset="0.617187"/><stop style="stop-color:rgb(100%,18.260193%,18.260193%);stop-opacity:1;" offset="0.625"/><stop style="stop-color:rgb(100%,18.061829%,18.061829%);stop-opacity:1;" offset="0.632812"/><stop style="stop-color:rgb(100%,17.861938%,17.861938%);stop-opacity:1;" offset="0.640625"/><stop style="stop-color:rgb(100%,17.663574%,17.663574%);stop-opacity:1;" offset="0.648437"/><stop style="stop-color:rgb(100%,17.463684%,17.463684%);stop-opacity:1;" offset="0.65625"/><stop style="stop-color:rgb(100%,17.26532%,17.26532%);stop-opacity:1;" offset="0.664062"/><stop style="stop-color:rgb(100%,17.06543%,17.06543%);stop-opacity:1;" offset="0.671875"/><stop style="stop-color:rgb(100%,16.867065%,16.867065%);stop-opacity:1;" offset="0.679688"/><stop style="stop-color:rgb(100%,16.667175%,16.667175%);stop-opacity:1;" offset="0.6875"/><stop style="stop-color:rgb(100%,16.467285%,16.467285%);stop-opacity:1;" offset="0.695312"/><stop style="stop-color:rgb(100%,16.268921%,16.268921%);stop-opacity:1;" offset="0.703125"/><stop style="stop-color:rgb(100%,16.069031%,16.069031%);stop-opacity:1;" offset="0.710938"/><stop style="stop-color:rgb(100%,15.870667%,15.870667%);stop-opacity:1;" offset="0.71875"/><stop style="stop-color:rgb(100%,15.670776%,15.670776%);stop-opacity:1;" offset="0.726563"/><stop style="stop-color:rgb(100%,15.472412%,15.472412%);stop-opacity:1;" offset="0.734375"/><stop style="stop-color:rgb(100%,15.272522%,15.272522%);stop-opacity:1;" offset="0.742188"/><stop style="stop-color:rgb(100%,15.074158%,15.074158%);stop-opacity:1;" offset="0.75"/><stop style="stop-color:rgb(100%,14.874268%,14.874268%);stop-opacity:1;" offset="0.757813"/><stop style="stop-color:rgb(100%,14.674377%,14.674377%);stop-opacity:1;" offset="0.765625"/><stop style="stop-color:rgb(100%,14.476013%,14.476013%);stop-opacity:1;" offset="0.773438"/><stop style="stop-color:rgb(100%,14.276123%,14.276123%);stop-opacity:1;" offset="0.78125"/><stop style="stop-color:rgb(100%,14.077759%,14.077759%);stop-opacity:1;" offset="0.789063"/><stop style="stop-color:rgb(100%,13.877869%,13.877869%);stop-opacity:1;" offset="0.796875"/><stop style="stop-color:rgb(100%,13.679504%,13.679504%);stop-opacity:1;" offset="0.804687"/><stop style="stop-color:rgb(100%,13.479614%,13.479614%);stop-opacity:1;" offset="0.8125"/><stop style="stop-color:rgb(100%,13.279724%,13.279724%);stop-opacity:1;" offset="0.820312"/><stop style="stop-color:rgb(100%,13.08136%,13.08136%);stop-opacity:1;" offset="0.828125"/><stop style="stop-color:rgb(100%,12.88147%,12.88147%);stop-opacity:1;" offset="0.835937"/><stop style="stop-color:rgb(100%,12.683105%,12.683105%);stop-opacity:1;" offset="0.84375"/><stop style="stop-color:rgb(100%,12.483215%,12.483215%);stop-opacity:1;" offset="0.851562"/><stop style="stop-color:rgb(100%,12.284851%,12.284851%);stop-opacity:1;" offset="0.859375"/><stop style="stop-color:rgb(100%,12.084961%,12.084961%);stop-opacity:1;" offset="0.867188"/><stop style="stop-color:rgb(100%,11.886597%,11.886597%);stop-opacity:1;" offset="0.875"/><stop style="stop-color:rgb(100%,11.686707%,11.686707%);stop-opacity:1;" offset="0.882812"/><stop style="stop-color:rgb(100%,11.486816%,11.486816%);stop-opacity:1;" offset="0.890625"/><stop style="stop-color:rgb(100%,11.288452%,11.288452%);stop-opacity:1;" offset="0.898438"/><stop style="stop-color:rgb(100%,11.088562%,11.088562%);stop-opacity:1;" offset="0.90625"/><stop style="stop-color:rgb(100%,10.890198%,10.890198%);stop-opacity:1;" offset="0.914063"/><stop style="stop-color:rgb(100%,10.690308%,10.690308%);stop-opacity:1;" offset="0.921875"/><stop style="stop-color:rgb(100%,10.491943%,10.491943%);stop-opacity:1;" offset="0.929688"/><stop style="stop-color:rgb(100%,10.292053%,10.292053%);stop-opacity:1;" offset="0.9375"/><stop style="stop-color:rgb(100%,10.093689%,10.093689%);stop-opacity:1;" offset="0.945313"/><stop style="stop-color:rgb(100%,9.893799%,9.893799%);stop-opacity:1;" offset="0.953125"/><stop style="stop-color:rgb(100%,9.693909%,9.693909%);stop-opacity:1;" offset="0.960938"/><stop style="stop-color:rgb(100%,9.495544%,9.495544%);stop-opacity:1;" offset="0.96875"/><stop style="stop-color:rgb(100%,9.295654%,9.295654%);stop-opacity:1;" offset="0.976563"/><stop style="stop-color:rgb(100%,9.09729%,9.09729%);stop-opacity:1;" offset="0.984375"/><stop style="stop-color:rgb(100%,8.8974%,8.8974%);stop-opacity:1;" offset="0.992188"/><stop style="stop-color:rgb(100%,8.699036%,8.699036%);stop-opacity:1;" offset="1"/></linearGradient><clipPath xml:id="clip3" id="clip3"><rect x="0" width="159" y="0" height="120"/></clipPath></defs><g xml:id="surface1" id="surface1"><path style=" stroke:none;fill-rule:nonzero;fill:rgb(33.329773%,80.389404%,57.649231%);fill-opacity:1;" d="M 77.609375 0 L 297.390625 0 C 298.660156 0 299.929688 0.03125 301.199219 0.09375 C 302.46875 0.15625 303.734375 0.25 304.996094 0.375 C 306.261719 0.5 307.523438 0.652344 308.777344 0.839844 C 310.035156 1.027344 311.285156 1.242188 312.53125 1.492188 C 313.777344 1.738281 315.015625 2.015625 316.25 2.324219 C 317.480469 2.632812 318.703125 2.972656 319.917969 3.34375 C 321.136719 3.710938 322.339844 4.109375 323.535156 4.535156 C 324.730469 4.964844 325.917969 5.421875 327.089844 5.90625 C 328.265625 6.394531 329.425781 6.910156 330.574219 7.453125 C 331.722656 7.996094 332.855469 8.566406 333.976562 9.164062 C 335.09375 9.761719 336.199219 10.386719 337.289062 11.042969 C 338.378906 11.695312 339.453125 12.375 340.507812 13.078125 C 341.5625 13.785156 342.601562 14.515625 343.621094 15.273438 C 344.644531 16.03125 345.644531 16.8125 346.625 17.617188 C 347.605469 18.421875 348.570312 19.25 349.511719 20.105469 C 350.449219 20.957031 351.371094 21.832031 352.269531 22.730469 C 353.167969 23.628906 354.042969 24.550781 354.894531 25.488281 C 355.75 26.429688 356.578125 27.394531 357.382812 28.375 C 358.1875 29.355469 358.96875 30.355469 359.726562 31.378906 C 360.484375 32.398438 361.214844 33.4375 361.921875 34.492188 C 362.625 35.546875 363.304688 36.621094 363.957031 37.710938 C 364.609375 38.800781 365.238281 39.90625 365.835938 41.023438 C 366.433594 42.144531 367.003906 43.277344 367.546875 44.425781 C 368.089844 45.574219 368.605469 46.734375 369.09375 47.910156 C 369.578125 49.082031 370.035156 50.265625 370.464844 51.464844 C 370.890625 52.660156 371.289062 53.863281 371.65625 55.082031 C 372.027344 56.296875 372.367188 57.519531 372.675781 58.75 C 372.984375 59.984375 373.261719 61.222656 373.507812 62.46875 C 373.757812 63.714844 373.972656 64.964844 374.160156 66.222656 C 374.347656 67.476562 374.5 68.738281 374.625 70.003906 C 374.75 71.265625 374.84375 72.53125 374.90625 73.800781 C 374.96875 75.070312 375 76.339844 375 77.609375 L 375 297.390625 C 375 298.660156 374.96875 299.929688 374.90625 301.199219 C 374.84375 302.46875 374.75 303.734375 374.625 304.996094 C 374.5 306.261719 374.347656 307.523438 374.160156 308.777344 C 373.972656 310.035156 373.757812 311.285156 373.507812 312.53125 C 373.261719 313.777344 372.984375 315.015625 372.675781 316.25 C 372.367188 317.480469 372.027344 318.703125 371.65625 319.917969 C 371.289062 321.136719 370.890625 322.339844 370.464844 323.535156 C 370.035156 324.730469 369.578125 325.917969 369.09375 327.089844 C 368.605469 328.265625 368.089844 329.425781 367.546875 330.574219 C 367.003906 331.722656 366.433594 332.855469 365.835938 333.976562 C 365.238281 335.09375 364.609375 336.199219 363.957031 337.289062 C 363.304688 338.378906 362.625 339.453125 361.921875 340.507812 C 361.214844 341.5625 360.484375 342.601562 359.726562 343.621094 C 358.96875 344.644531 358.1875 345.644531 357.382812 346.625 C 356.578125 347.605469 355.75 348.570312 354.894531 349.511719 C 354.042969 350.449219 353.167969 351.371094 352.269531 352.269531 C 351.371094 353.167969 350.449219 354.042969 349.511719 354.894531 C 348.570312 355.75 347.605469 356.578125 346.625 357.382812 C 345.644531 358.1875 344.644531 358.96875 343.621094 359.726562 C 342.601562 360.484375 341.5625 361.214844 340.507812 361.921875 C 339.453125 362.625 338.378906 363.304688 337.289062 363.957031 C 336.199219 364.609375 335.09375 365.238281 333.976562 365.835938 C 332.855469 366.433594 331.722656 367.003906 330.574219 367.546875 C 329.425781 368.089844 328.265625 368.605469 327.089844 369.09375 C 325.917969 369.578125 324.730469 370.035156 323.535156 370.464844 C 322.339844 370.890625 321.136719 371.289062 319.917969 371.65625 C 318.703125 372.027344 317.480469 372.367188 316.25 372.675781 C 315.015625 372.984375 313.777344 373.261719 312.53125 373.507812 C 311.285156 373.757812 310.035156 373.972656 308.777344 374.160156 C 307.523438 374.347656 306.261719 374.5 304.996094 374.625 C 303.734375 374.75 302.46875 374.84375 301.199219 374.90625 C 299.929688 374.96875 298.660156 375 297.390625 375 L 77.609375 375 C 76.339844 375 75.070312 374.96875 73.800781 374.90625 C 72.53125 374.84375 71.265625 374.75 70.003906 374.625 C 68.738281 374.5 67.476562 374.347656 66.222656 374.160156 C 64.964844 373.972656 63.714844 373.757812 62.46875 373.507812 C 61.222656 373.261719 59.984375 372.984375 58.75 372.675781 C 57.519531 372.367188 56.296875 372.027344 55.082031 371.65625 C 53.863281 371.289062 52.660156 370.890625 51.464844 370.464844 C 50.265625 370.035156 49.082031 369.578125 47.910156 369.09375 C 46.734375 368.605469 45.574219 368.089844 44.425781 367.546875 C 43.277344 367.003906 42.144531 366.433594 41.023438 365.835938 C 39.90625 365.238281 38.800781 364.609375 37.710938 363.957031 C 36.621094 363.304688 35.546875 362.625 34.492188 361.921875 C 33.4375 361.214844 32.398438 360.484375 31.378906 359.726562 C 30.355469 358.96875 29.355469 358.1875 28.375 357.382812 C 27.394531 356.578125 26.429688 355.75 25.488281 354.894531 C 24.550781 354.042969 23.628906 353.167969 22.730469 352.269531 C 21.832031 351.371094 20.957031 350.449219 20.105469 349.511719 C 19.25 348.570312 18.421875 347.605469 17.617188 346.625 C 16.8125 345.644531 16.03125 344.644531 15.273438 343.621094 C 14.515625 342.601562 13.785156 341.5625 13.078125 340.507812 C 12.375 339.453125 11.695312 338.378906 11.042969 337.289062 C 10.386719 336.199219 9.761719 335.09375 9.164062 333.976562 C 8.566406 332.855469 7.996094 331.722656 7.453125 330.574219 C 6.910156 329.425781 6.394531 328.265625 5.90625 327.089844 C 5.421875 325.917969 4.964844 324.730469 4.535156 323.535156 C 4.109375 322.339844 3.710938 321.136719 3.34375 319.917969 C 2.972656 318.703125 2.632812 317.480469 2.324219 316.25 C 2.015625 315.015625 1.738281 313.777344 1.492188 312.53125 C 1.242188 311.285156 1.027344 310.035156 0.839844 308.777344 C 0.652344 307.523438 0.5 306.261719 0.375 304.996094 C 0.25 303.734375 0.15625 302.46875 0.09375 301.199219 C 0.03125 299.929688 0 298.660156 0 297.390625 L 0 77.609375 C 0 76.339844 0.03125 75.070312 0.09375 73.800781 C 0.15625 72.53125 0.25 71.265625 0.375 70.003906 C 0.5 68.738281 0.652344 67.476562 0.839844 66.222656 C 1.027344 64.964844 1.242188 63.714844 1.492188 62.46875 C 1.738281 61.222656 2.015625 59.984375 2.324219 58.75 C 2.632812 57.519531 2.972656 56.296875 3.34375 55.082031 C 3.710938 53.863281 4.109375 52.660156 4.535156 51.464844 C 4.964844 50.265625 5.421875 49.082031 5.90625 47.910156 C 6.394531 46.734375 6.910156 45.574219 7.453125 44.425781 C 7.996094 43.277344 8.566406 42.144531 9.164062 41.023438 C 9.761719 39.90625 10.386719 38.800781 11.042969 37.710938 C 11.695312 36.621094 12.375 35.546875 13.078125 34.492188 C 13.785156 33.4375 14.515625 32.398438 15.273438 31.378906 C 16.03125 30.355469 16.8125 29.355469 17.617188 28.375 C 18.421875 27.394531 19.25 26.429688 20.105469 25.488281 C 20.957031 24.550781 21.832031 23.628906 22.730469 22.730469 C 23.628906 21.832031 24.550781 20.957031 25.488281 20.105469 C 26.429688 19.25 27.394531 18.421875 28.375 17.617188 C 29.355469 16.8125 30.355469 16.03125 31.378906 15.273438 C 32.398438 14.515625 33.4375 13.785156 34.492188 13.078125 C 35.546875 12.375 36.621094 11.695312 37.710938 11.042969 C 38.800781 10.386719 39.90625 9.761719 41.023438 9.164062 C 42.144531 8.566406 43.277344 7.996094 44.425781 7.453125 C 45.574219 6.910156 46.734375 6.394531 47.910156 5.90625 C 49.082031 5.421875 50.265625 4.964844 51.464844 4.535156 C 52.660156 4.109375 53.863281 3.710938 55.082031 3.34375 C 56.296875 2.972656 57.519531 2.632812 58.75 2.324219 C 59.984375 2.015625 61.222656 1.738281 62.46875 1.492188 C 63.714844 1.242188 64.964844 1.027344 66.222656 0.839844 C 67.476562 0.652344 68.738281 0.5 70.003906 0.375 C 71.265625 0.25 72.53125 0.15625 73.800781 0.09375 C 75.070312 0.03125 76.339844 0 77.609375 0 Z M 77.609375 0 "/><g clip-rule="nonzero" clip-path="url(#clip1)"><g clip-rule="nonzero" clip-path="url(#clip2)"><path style=" stroke:none;fill-rule:nonzero;fill:url(#linear0);" d="M 23 158.136719 L 23 275.800781 L 181.25 275.800781 L 181.25 158.136719 Z M 23 158.136719 "/></g></g><g mask="url(#mask0)" transform="matrix(1,0,0,1,5,98)"><g xml:id="surface5" id="surface5" clip-path="url(#clip3)"><g clip-rule="nonzero" clip-path="url(#clip4)"><g clip-rule="nonzero" clip-path="url(#clip5)"><path style=" stroke:none;fill-rule:nonzero;fill:url(#linear1);" d="M 0.25 1.324219 L 0.25 118.988281 L 158.5 118.988281 L 158.5 1.324219 Z M 0.25 1.324219 "/></g></g></g><mask xml:id="mask0" id="mask0"><g filter="url(#alpha)"><rect x="0" width="375" y="0" height="374.999991" style="fill:rgb(0%,0%,0%);fill-opacity:0.8471;stroke:none;"/></g></mask></g><g style="fill:rgb(100%,100%,100%);fill-opacity:1;"><g transform="translate(137.009747, 277.864319)"><path style="stroke:none;" d="M 12.230469 0.933594 C 22.59375 0.933594 30.148438 -6.042969 30.148438 -17.125 L 30.148438 -51.375 L 16.261719 -51.375 L 16.261719 -19.066406 C 16.261719 -13.3125 13.023438 -9.929688 8.273438 -9.929688 C 6.332031 -9.929688 3.667969 -10.21875 1.726562 -10.722656 L 1.726562 -0.503906 C 4.460938 0.359375 8.707031 0.933594 12.230469 0.933594 Z M 12.230469 0.933594 "/></g></g><g style="fill:rgb(100%,100%,100%);fill-opacity:1;"><g transform="translate(170.97162, 277.864319)"><path style="stroke:none;" d="M 4.03125 0 L 17.917969 0 L 17.917969 -21.082031 L 36.984375 -21.082031 L 36.984375 0 L 50.945312 0 L 50.945312 -51.375 L 36.984375 -51.375 L 36.984375 -31.949219 L 17.917969 -31.949219 L 17.917969 -51.375 L 4.03125 -51.375 Z M 4.03125 0 "/></g></g><g style="fill:rgb(100%,100%,100%);fill-opacity:1;"><g transform="translate(225.871843, 277.864319)"><path style="stroke:none;" d="M 22.449219 0.933594 C 31.875 0.933594 39.71875 -3.742188 41.519531 -10.863281 L 30.726562 -12.375 C 29.644531 -9.5 26.765625 -7.410156 23.097656 -7.410156 C 18.347656 -7.410156 15.109375 -10.503906 14.390625 -15.183594 L 42.667969 -15.183594 C 42.742188 -15.757812 42.8125 -17.484375 42.8125 -18.347656 C 42.8125 -30.292969 34.828125 -37.921875 22.59375 -37.921875 C 10.363281 -37.921875 1.65625 -30.363281 1.65625 -18.5625 C 1.65625 -6.691406 10.144531 0.933594 22.449219 0.933594 Z M 14.246094 -21.585938 C 14.894531 -26.40625 17.917969 -29.574219 22.378906 -29.574219 C 26.910156 -29.574219 30.222656 -25.976562 30.4375 -21.585938 Z M 14.246094 -21.585938 "/></g></g><g style="fill:rgb(100%,100%,100%);fill-opacity:1;"><g transform="translate(270.266917, 277.864319)"><path style="stroke:none;" d="M 4.03125 0 L 41.085938 0 L 41.085938 -11.871094 L 17.988281 -11.871094 L 17.988281 -51.375 L 4.03125 -51.375 Z M 4.03125 0 "/></g></g><g style="fill:rgb(100%,100%,100%);fill-opacity:1;"><g transform="translate(313.007061, 277.864319)"><path style="stroke:none;" d="M 0.574219 0 L 15.039062 0 L 17.773438 -8.5625 L 36.769531 -8.5625 L 39.503906 0 L 53.964844 0 L 37.558594 -51.375 L 16.980469 -51.375 Z M 20.433594 -18.421875 L 26.910156 -39.574219 L 27.558594 -39.574219 L 34.105469 -18.421875 Z M 20.433594 -18.421875 "/></g></g></g></svg>