<svg id="Capa_1" enable-background="new 0 0 512 512" height="512" viewBox="0 0 512 512" width="512" xmlns="http://www.w3.org/2000/svg"><g><path d="m474.5 252.75-56.75 86.75c47.911 0 86.75-38.839 86.75-86.75z" fill="#ffbb6e"/><path d="m474.5 252.75h-143.5c0 47.911 38.839 86.75 86.75 86.75 31.342 0 56.75-38.839 56.75-86.75z" fill="#ffd478"/><path d="m151 252.75-56.75 86.75c47.911 0 86.75-38.839 86.75-86.75z" fill="#ffbb6e"/><path d="m151 252.75h-143.5c0 47.911 38.839 86.75 86.75 86.75 31.342 0 56.75-38.839 56.75-86.75z" fill="#ffd478"/><path d="m211 142.5h30v227h-30z" fill="#fff5de"/><path d="m256 142.5h45v227h-45z" fill="#ffd478"/><path d="m241 142.5h30v227h-30z" fill="#ffe7ad"/><path d="m331 354.5h-30l-45 60 75-30c8.284 0 15-6.716 15-15s-6.716-15-15-15z" fill="#aa6f51"/><path d="m316 369.5c0-8.284-6.716-15-15-15h-120c-8.284 0-15 6.716-15 15s6.716 15 15 15l75 30 45-30c8.284 0 15-6.716 15-15z" fill="#b88567"/><path d="m345.53 417.09-14.53-32.59h-75v74.99h131.75v-15c-18.25 0-34.79-10.74-42.22-27.4z" fill="#995e49"/><path d="m322.08 430.83c8.52 8.58 20.26 13.66 32.81 13.66v15l-230.64.01v-15c18.25 0 34.79-10.73 42.22-27.4l14.53-32.6h117.14l14.53 32.59c2.32 5.21 5.53 9.83 9.41 13.74z" fill="#aa6f51"/><path d="m226 52.5h45v90h-45z" fill="#ffbb6e"/><path d="m256 52.5h30v90h-30z" fill="#ffa061"/><path d="m301 127.5h-30v30h30c8.284 0 15-6.716 15-15s-6.716-15-15-15z" fill="#ffbb6e"/><path d="m286 142.5c0-8.284-6.716-15-15-15h-60c-8.284 0-15 6.716-15 15s6.716 15 15 15h60c8.284 0 15-6.716 15-15z" fill="#ffd478"/><path d="m417.75 37.5h-30v30h30c8.284 0 15-6.716 15-15s-6.716-15-15-15z" fill="#ffd478"/><path d="m402.75 52.5c0-8.284-6.716-15-15-15h-293.5c-8.284 0-15 6.716-15 15s6.716 15 15 15h293.5c8.284 0 15-6.716 15-15z" fill="#ffe7ad"/><path d="m387.75 444.487h-30v45l60-15c0-16.568-13.431-30-30-30z" fill="#aa6f51"/><path d="m357.75 444.487-233.5.013c-16.569 0-30 13.431-30 30v15l293.5-.013v-15c0-16.568-13.431-30-30-30z" fill="#b88567"/><path d="m444.5 474.5h-30l30 30h30c0-16.569-13.431-30-30-30z" fill="#ffbb6e"/><path d="m414.5 474.5h-347c-16.569 0-30 13.431-30 30h407c0-16.569-13.431-30-30-30z" fill="#ffd478"/><circle cx="256" cy="52.5" fill="#ffd478" r="45"/><circle cx="256" cy="52.5" fill="#b88567" r="15"/><path d="m444.5 467h-20.002c-3.479-17.102-18.633-30.013-36.748-30.013-15.268 0-29.149-9.009-35.367-22.951l-10.97-24.6c7.177-3.764 12.087-11.285 12.087-19.936 0-12.407-10.093-22.5-22.5-22.5h-22.5v-183.29c8.729-3.096 15-11.432 15-21.21 0-12.407-10.093-22.5-22.5-22.5h-7.5v-30.808c4.042-4.13 7.411-8.918 9.924-14.192h114.326c12.407 0 22.5-10.093 22.5-22.5s-10.093-22.5-22.5-22.5h-114.326c-8.441-17.721-26.523-30-47.424-30s-38.983 12.279-47.424 30h-114.326c-12.407 0-22.5 10.093-22.5 22.5s10.093 22.5 22.5 22.5h114.326c2.513 5.275 5.882 10.063 9.924 14.192v30.808h-7.5c-12.407 0-22.5 10.093-22.5 22.5 0 9.778 6.271 18.114 15 21.21v183.29h-22.5c-12.407 0-22.5 10.093-22.5 22.5 0 8.651 4.907 16.178 12.085 19.941l-10.97 24.604c-6.216 13.945-20.097 22.955-35.365 22.955-18.11 0-33.261 12.904-36.745 30h-20.005c-20.678 0-37.5 16.822-37.5 37.5 0 4.142 3.358 7.5 7.5 7.5h437c4.142 0 7.5-3.358 7.5-7.5 0-20.678-16.822-37.5-37.5-37.5zm-166-120v-182h15v182zm-15-182v182h-15v-182zm154.25-120c4.136 0 7.5 3.364 7.5 7.5s-3.364 7.5-7.5 7.5h-109.794c.352-2.451.544-4.953.544-7.5s-.192-5.049-.544-7.5zm-161.75-30c20.678 0 37.5 16.822 37.5 37.5s-16.822 37.5-37.5 37.5-37.5-16.822-37.5-37.5 16.822-37.5 37.5-37.5zm-161.75 45c-4.136 0-7.5-3.364-7.5-7.5s3.364-7.5 7.5-7.5h109.794c-.352 2.451-.544 4.953-.544 7.5s.192 5.049.544 7.5zm139.25 39.924c6.824 3.25 14.452 5.076 22.5 5.076s15.676-1.825 22.5-5.076v20.076h-45zm-22.5 35.076h90c4.136 0 7.5 3.364 7.5 7.5s-3.364 7.5-7.5 7.5h-90c-4.136 0-7.5-3.364-7.5-7.5s3.364-7.5 7.5-7.5zm7.5 30h15v182h-15zm-45.184 255.154 14.534-32.6c1.034-2.32.824-5.006-.559-7.137s-3.75-3.417-6.291-3.417c-4.136 0-7.5-3.364-7.5-7.5s3.364-7.5 7.5-7.5h150c4.136 0 7.5 3.364 7.5 7.5s-3.364 7.5-7.5 7.5h-120c-4.142 0-7.5 3.358-7.5 7.5s3.358 7.5 7.5 7.5h115.133l12.551 28.146c2.875 6.446 6.935 12.127 11.849 16.844l-189.064.009c4.913-4.718 8.973-10.399 11.847-16.845zm-49.066 31.846 263.5-.013c9.782 0 18.122 6.277 21.214 15.013h-305.924c3.096-8.729 11.433-15 21.21-15zm-77.965 45c3.095-8.73 11.437-15 21.215-15h377c9.778 0 18.12 6.27 21.215 15z"/><path d="m188.5 252.75c0-1.281-.328-2.541-.953-3.658l-86.75-155.25c-1.325-2.372-3.83-3.842-6.547-3.842s-5.222 1.47-6.547 3.842l-86.75 155.25c-.625 1.117-.953 2.377-.953 3.658 0 51.97 42.28 94.25 94.25 94.25s94.25-42.28 94.25-94.25zm-101.75-7.5h-66.468l66.468-118.952zm15-118.952 66.468 118.952h-66.468zm-86.374 133.952h157.748c-3.795 40.19-37.707 71.75-78.874 71.75s-75.079-31.56-78.874-71.75z"/><path d="m256 75c12.407 0 22.5-10.093 22.5-22.5s-10.093-22.5-22.5-22.5-22.5 10.093-22.5 22.5 10.093 22.5 22.5 22.5zm0-30c4.136 0 7.5 3.364 7.5 7.5s-3.364 7.5-7.5 7.5-7.5-3.364-7.5-7.5 3.364-7.5 7.5-7.5z"/><path d="m511.047 249.092-86.75-155.25c-1.325-2.372-3.83-3.842-6.547-3.842s-5.222 1.47-6.547 3.842l-86.75 155.25c-.625 1.118-.953 2.377-.953 3.658 0 51.97 42.28 94.25 94.25 94.25s94.25-42.28 94.25-94.25c0-1.281-.328-2.541-.953-3.658zm-100.797-3.842h-66.468l66.468-118.952zm15-118.952 66.468 118.952h-66.468zm-7.5 205.702c-41.167 0-75.079-31.56-78.874-71.75h157.748c-3.795 40.19-37.707 71.75-78.874 71.75z"/></g></svg>