<svg id="Capa_1" enable-background="new 0 0 509.108 509.108" height="512" viewBox="0 0 509.108 509.108" width="512" xmlns="http://www.w3.org/2000/svg"><g id="XMLID_270_"><path id="XMLID_73_" d="m287.529 100.272c-33.667-25.174-64.307-51.486-94.037-81.216l-7.366-7.366-7.367 7.367c-32.065 32.065-66.926 61.125-103.357 88.128-45.646 33.833-75.27 88.051-75.402 149.201-.218 101.995 82.74 185.782 184.731 186.529 1.607.012 5.372.003 6.97-.026z" fill="#804d19"/><path id="XMLID_72_" d="m330.348 73.55-7.366-7.366-7.367 7.367c-32.065 32.065-66.926 61.125-103.357 88.128-45.645 33.833-75.27 88.051-75.401 149.201-.219 101.994 84.133 185.786 186.125 186.533 103.434.758 186.126-82.866 186.126-186.125 0-61.65-29.978-116.292-76.149-150.16-36.315-26.638-70.764-55.731-102.611-87.578z" fill="#b36b24"/><path id="XMLID_883_" d="m432.959 161.128c-36.315-26.639-70.764-55.732-102.611-87.578l-7.366-7.366v431.229c103.434.758 186.126-82.866 186.126-186.125 0-61.65-29.978-116.292-76.149-150.16z" fill="#804d19"/><path id="XMLID_57_" d="m322.982 147.265-5.038 5.038c-21.926 21.926-45.762 41.796-70.673 60.26-31.211 23.134-51.468 60.207-51.557 102.02-.15 69.741 57.528 127.033 127.268 127.544 2.426.018 117.269-61.982 117.269-127.265 0-42.155-20.498-79.518-52.069-102.676-24.831-18.216-65.2-64.921-65.2-64.921z" fill="#ffea80"/><path id="XMLID_123_" d="m398.182 212.185c-24.832-18.215-48.387-38.108-70.163-59.884l-5.037-5.037v294.861c2.426.018 6.909-10.148 6.909-10.148s5.283 9.627 8.091 9.301c63.194-7.331 112.269-61.134 112.269-126.417 0-42.155-20.498-79.518-52.069-102.676z" fill="#ffc34d"/><path id="XMLID_254_" d="m337.982 350.249v91.11c-4.92.55-9.92.81-15 .77-5.07-.04-10.07-.38-15-1v-90.88z" fill="#ffc34d"/><path id="XMLID_148_" d="m322.982 350.249v91.88c5.08.04 10.08-.22 15-.77v-91.11z" fill="#f93"/></g></svg>