<?xml version="1.0" encoding="utf-8"?>
<!-- Generator: Adobe Illustrator 22.1.0, SVG Export Plug-In . SVG Version: 6.00 Build 0)  -->
<svg xmlns="http://www.w3.org/2000/svg" xmlns:xlink="http://www.w3.org/1999/xlink" version="1.1" id="Layer_1" x="0px" y="0px" viewBox="0 0 256 256" style="enable-background:new 0 0 256 256;" xml:space="preserve" width="512" height="512">
<style type="text/css">
	.st0{fill:#FFA730;}
	.st1{fill:#E58D23;}
	.st2{fill:#FFB74B;}
	.st3{fill:#BF6C0D;}
	.st4{fill:#A56021;}
	.st5{fill:#CCC033;}
	.st6{fill:#99AF17;}
	.st7{fill:#EACF32;}
	.st8{fill:#FCDA4F;}
	.st9{fill:#FFDF74;}
	.st10{fill:#FCE575;}
	.st11{fill:#FFD551;}
	.st12{fill:#FFC34C;}
	.st13{fill:#F9BB32;}
	.st14{fill:#FFF4C1;}
	.st15{fill:#DB9C2E;}
	.st16{fill:#8C4C17;}
	.st17{fill:#FF624B;}
	.st18{fill:#FF4B34;}
	.st19{fill:#FF9079;}
	.st20{fill:#FFD59A;}
	.st21{fill:#FFEACF;}
	.st22{fill:#FCF9DE;}
</style>
<g>
	<g>
		<g>
			<path class="st1" d="M186.894,208.447H22.012c-4.175,0-7.559-3.384-7.559-7.559v-34.881c0-4.175,3.384-7.559,7.559-7.559h164.881     c4.175,0,7.559,3.384,7.559,7.559v34.881C194.453,205.062,191.068,208.447,186.894,208.447z"/>
		</g>
	</g>
	<g>
		<g>
			<path class="st3" d="M186.894,158.447H22.012c-4.175,0-7.559-3.384-7.559-7.559v-34.881c0-4.175,3.384-7.559,7.559-7.559h164.881     c4.175,0,7.559,3.384,7.559,7.559v34.881C194.453,155.062,191.068,158.447,186.894,158.447z"/>
		</g>
	</g>
	<g>
		<g>
			<path class="st1" d="M186.894,108.447H22.012c-4.175,0-7.559-3.384-7.559-7.559V66.006c0-4.175,3.384-7.559,7.559-7.559h164.881     c4.175,0,7.559,3.384,7.559,7.559v34.881C194.453,105.062,191.068,108.447,186.894,108.447z"/>
		</g>
	</g>
	<g>
		<g>
			<path class="st3" d="M186.894,58.447H22.012c-4.175,0-7.559-3.384-7.559-7.559V16.006c0-4.175,3.384-7.559,7.559-7.559h164.881     c4.175,0,7.559,3.384,7.559,7.559v34.881C194.453,55.062,191.068,58.447,186.894,58.447z"/>
		</g>
	</g>
	<g>
		<g>
			<path class="st3" d="M42.453,200.887v-34.882c0-4.175,3.384-7.559,7.559-7.559h-28c-4.175,0-7.559,3.384-7.559,7.559v34.882     c0,4.175,3.384,7.559,7.559,7.559h28C45.837,208.447,42.453,205.062,42.453,200.887z"/>
		</g>
	</g>
	<g>
		<g>
			<path class="st0" d="M186.453,103.446c-1.657,0-3-1.343-3-3v-34c0-1.657,1.343-3,3-3s3,1.343,3,3v34     C189.453,102.103,188.11,103.446,186.453,103.446z"/>
		</g>
	</g>
	<g>
		<g>
			<path class="st3" d="M42.453,100.887V66.006c0-4.175,3.384-7.559,7.559-7.559h-28c-4.175,0-7.559,3.384-7.559,7.559v34.882     c0,4.175,3.384,7.559,7.559,7.559h28C45.837,108.447,42.453,105.062,42.453,100.887z"/>
		</g>
	</g>
	<g>
		<g>
			<path class="st1" d="M186.453,53.446c-1.657,0-3-1.343-3-3v-34c0-1.657,1.343-3,3-3s3,1.343,3,3v34     C189.453,52.103,188.11,53.446,186.453,53.446z"/>
		</g>
	</g>
	<g>
		<g>
			<path class="st4" d="M42.453,50.887V16.006c0-4.175,3.384-7.559,7.559-7.559h-28c-4.175,0-7.559,3.384-7.559,7.559v34.882     c0,4.175,3.384,7.559,7.559,7.559h28C45.837,58.447,42.453,55.062,42.453,50.887z"/>
		</g>
	</g>
	<g>
		<g>
			<path class="st4" d="M42.453,150.887v-34.882c0-4.175,3.384-7.559,7.559-7.559h-28c-4.175,0-7.559,3.384-7.559,7.559v34.882     c0,4.175,3.384,7.559,7.559,7.559h28C45.837,158.447,42.453,155.062,42.453,150.887z"/>
		</g>
	</g>
	<g>
		<g>
			<path class="st5" d="M174.025,185.505h-32.072c-2.189,0-3.964-1.775-3.964-3.964v-0.072c0-2.189,1.775-3.964,3.964-3.964h32.072     c2.189,0,3.964,1.775,3.964,3.964v0.072C177.989,183.731,176.214,185.505,174.025,185.505z"/>
		</g>
	</g>
	<g>
		<g>
			<path class="st5" d="M174.025,135.505h-32.072c-2.189,0-3.964-1.775-3.964-3.964v-0.072c0-2.189,1.775-3.964,3.964-3.964h32.072     c2.189,0,3.964,1.775,3.964,3.964v0.072C177.989,133.731,176.214,135.505,174.025,135.505z"/>
		</g>
	</g>
	<g>
		<g>
			<path class="st5" d="M174.025,85.505h-32.072c-2.189,0-3.964-1.775-3.964-3.964V81.47c0-2.189,1.775-3.964,3.964-3.964h32.072     c2.189,0,3.964,1.775,3.964,3.964v0.072C177.989,83.731,176.214,85.505,174.025,85.505z"/>
		</g>
	</g>
	<g>
		<g>
			<path class="st5" d="M174.025,35.505h-32.072c-2.189,0-3.964-1.775-3.964-3.964V31.47c0-2.189,1.775-3.964,3.964-3.964h32.072     c2.189,0,3.964,1.775,3.964,3.964v0.072C177.989,33.731,176.214,35.505,174.025,35.505z"/>
		</g>
	</g>
	<g>
		<g>
			<path class="st4" d="M42.453,50.887V16.006c0-4.175,3.384-7.559,7.559-7.559h-28c-4.175,0-7.559,3.384-7.559,7.559v34.882     c0,4.175,3.384,7.559,7.559,7.559h28C45.837,58.447,42.453,55.062,42.453,50.887z"/>
		</g>
	</g>
	<g>
		<g>
			<path class="st9" d="M236.932,246.348h-93.015c-3.31,0-5.992-2.683-5.992-5.992v-97.737c0-3.31,2.683-5.992,5.992-5.992h93.015     c3.31,0,5.992,2.683,5.992,5.992v97.737C242.925,243.666,240.242,246.348,236.932,246.348z"/>
		</g>
	</g>
	<g>
		<g>
			<path class="st11" d="M165.925,240.356v-97.738c0-3.309,2.683-5.992,5.992-5.992h-28c-3.31,0-5.992,2.683-5.992,5.992v97.738     c0,3.31,2.683,5.992,5.992,5.992h28C168.607,246.348,165.925,243.666,165.925,240.356z"/>
		</g>
	</g>
	<g>
		<g>
			<path class="st17" d="M242.925,159.512h-105v-17.521c0-3.116,2.526-5.643,5.643-5.643h93.715c3.116,0,5.643,2.526,5.643,5.643     V159.512z"/>
		</g>
	</g>
	<g>
		<g>
			<path class="st16" d="M153.296,194.206v-18.065c0-0.552-0.448-1-1-1h-0.828c-0.552,0-1-0.448-1-1v-1.938c0-0.552,0.448-1,1-1     h4.926c0.552,0,1,0.448,1,1v22.004c0,0.552-0.448,1-1,1h-2.098C153.744,195.206,153.296,194.758,153.296,194.206z"/>
		</g>
	</g>
	<g>
		<g>
			<path class="st4" d="M170.201,194.885c-0.552,0-1-0.448-1-1v-2.095l0.096-0.089c0.728-0.674,1.46-1.337,2.182-1.989     c4.35-3.933,8.458-7.647,8.458-11.468c0-2.527-1.106-3.81-3.289-3.81c-2.153,0-3.44,1.51-3.532,4.142l-0.01,0.289h-3.942     l0.008-0.307c0.155-6.45,5.181-9.64,12.434-6.789c0.204,0.08,0.388,0.232,0.504,0.419c5.03,8.057-1.209,13.89-5.895,18.274     c-0.281,0.263-0.557,0.521-0.824,0.773h8.191c0.552,0,1,0.448,1,1v1.649c0,0.552-0.448,1-1,1H170.201z"/>
		</g>
	</g>
	<g>
		<g>
			<path class="st4" d="M203.137,195.142c-7.356,0-8.207-6.986-8.207-12.242c0-8.151,2.685-12.114,8.207-12.114     s8.207,3.963,8.207,12.114C211.344,188.155,210.493,195.142,203.137,195.142z M203.137,174.724c-3.486,0-4.201,3.269-4.201,8.176     c0,5.126,0.703,8.304,4.201,8.304s4.201-3.178,4.201-8.304C207.338,177.992,206.623,174.724,203.137,174.724z"/>
		</g>
	</g>
	<g>
		<g>
			<path class="st4" d="M224.703,194.206v-18.065c0-0.552-0.448-1-1-1h-0.828c-0.552,0-1-0.448-1-1v-1.938c0-0.552,0.448-1,1-1     h4.926c0.552,0,1,0.448,1,1v22.004c0,0.552-0.448,1-1,1h-2.098C225.151,195.206,224.703,194.758,224.703,194.206z"/>
		</g>
	</g>
	<g>
		<g>
			<path class="st16" d="M153.037,232.732v-18.065c0-0.552-0.448-1-1-1h-0.828c-0.552,0-1-0.448-1-1v-1.938c0-0.552,0.448-1,1-1     h4.926c0.552,0,1,0.448,1,1v22.004c0,0.552-0.448,1-1,1h-2.098C153.485,233.732,153.037,233.285,153.037,232.732z"/>
		</g>
	</g>
	<g>
		<g>
			<path class="st4" d="M177.423,233.668c-7.356,0-8.207-6.986-8.207-12.242c0-8.151,2.685-12.114,8.207-12.114     s8.207,3.963,8.207,12.114C185.63,226.682,184.779,233.668,177.423,233.668z M177.423,213.25c-3.486,0-4.201,3.269-4.201,8.176     c0,5.126,0.703,8.304,4.201,8.304s4.201-3.178,4.201-8.304C181.624,216.519,180.909,213.25,177.423,213.25z"/>
		</g>
	</g>
	<g>
		<g>
			<path class="st4" d="M198.989,232.732v-18.065c0-0.552-0.448-1-1-1h-0.828c-0.552,0-1-0.448-1-1v-1.938c0-0.552,0.448-1,1-1     h4.926c0.552,0,1,0.448,1,1v22.004c0,0.552-0.448,1-1,1h-2.098C199.437,233.732,198.989,233.285,198.989,232.732z"/>
		</g>
	</g>
	<g>
		<g>
			<path class="st4" d="M222.767,233.86c-4.706,0-7.757-2.754-7.963-7.188l-0.015-0.313h3.939l0.019,0.279     c0.208,2.975,2.92,4.429,6.67,3.048c0.282-0.104,0.566-0.449,0.624-0.744c0.862-4.404-0.351-6.124-4.947-6.124h-1.09v-3.618     h1.121c3.238-0.033,4.748-1.05,4.748-3.199c0-1.952-1.21-3.071-3.319-3.071c-2.871,0-3.384,2.233-3.473,2.918l-0.034,0.261     h-3.958l0.019-0.317c0.241-4.014,3.212-6.607,7.568-6.607c4.254,0,7.111,2.571,7.111,6.399c0,2.005-0.821,3.553-1.905,4.544     c-0.454,0.415-0.433,1.131,0.054,1.508c1.462,1.132,2.247,2.98,2.247,5.378C230.183,231.172,227.271,233.86,222.767,233.86z"/>
		</g>
	</g>
	<g>
		<g>
			<path class="st18" d="M171.567,136.348h-28c-3.116,0-5.643,2.526-5.643,5.643v17.521h28v-17.521     C165.925,138.875,168.451,136.348,171.567,136.348z"/>
		</g>
	</g>
	<g>
		<g>
			<circle class="st18" cx="178.567" cy="147.93" r="9"/>
		</g>
	</g>
	<g>
		<g>
			<path class="st9" d="M108.989,24.447h-18h-44l0,0h-18c-2.209,0-4,1.791-4,4v10c0,2.209,1.791,4,4,4h18l0,0h44h18     c2.209,0,4-1.791,4-4v-10C112.989,26.238,111.198,24.447,108.989,24.447z"/>
		</g>
	</g>
	<g>
		<g>
			<path class="st11" d="M28.989,42.447h13.464v-18H28.989c-2.209,0-4,1.791-4,4v10C24.989,40.656,26.78,42.447,28.989,42.447z"/>
		</g>
	</g>
	<g>
		<g>
			<path class="st9" d="M108.989,74.447h-18h-44l0,0h-18c-2.209,0-4,1.791-4,4v10c0,2.209,1.791,4,4,4h18l0,0h44h18     c2.209,0,4-1.791,4-4v-10C112.989,76.238,111.198,74.447,108.989,74.447z"/>
		</g>
	</g>
	<g>
		<g>
			<path class="st8" d="M28.989,92.447h13.464v-18H28.989c-2.209,0-4,1.791-4,4v10C24.989,90.656,26.78,92.447,28.989,92.447z"/>
		</g>
	</g>
	<g>
		<g>
			<path class="st9" d="M108.989,124.447h-18h-44l0,0h-18c-2.209,0-4,1.791-4,4v10c0,2.209,1.791,4,4,4h18l0,0h44h18     c2.209,0,4-1.791,4-4v-10C112.989,126.238,111.198,124.447,108.989,124.447z"/>
		</g>
	</g>
	<g>
		<g>
			<path class="st8" d="M28.989,142.447h13.464v-18H28.989c-2.209,0-4,1.791-4,4v10C24.989,140.656,26.78,142.447,28.989,142.447z"/>
		</g>
	</g>
	<g>
		<g>
			<path class="st9" d="M108.989,174.447h-18h-44l0,0h-18c-2.209,0-4,1.791-4,4v10c0,2.209,1.791,4,4,4h18l0,0h44h18     c2.209,0,4-1.791,4-4v-10C112.989,176.238,111.198,174.447,108.989,174.447z"/>
		</g>
	</g>
	<g>
		<g>
			<path class="st8" d="M28.989,192.447h13.464v-18H28.989c-2.209,0-4,1.791-4,4v10C24.989,190.656,26.78,192.447,28.989,192.447z"/>
		</g>
	</g>
	<g>
		<g>
			<circle class="st11" cx="52" cy="33.5" r="8.5"/>
		</g>
	</g>
</g>
</svg>
