<svg id="Capa_1" enable-background="new 0 0 512 512" height="512" viewBox="0 0 512 512" width="512" xmlns="http://www.w3.org/2000/svg"><g><path d="m240.23 60.05h31.54v86.807h-31.54z" fill="#faea5e"/><path d="m461.691 47.908c0-4.956 1.709-9.51 4.547-13.142h-234.944c-7.258 0-13.142 5.884-13.142 13.142s5.884 13.142 13.142 13.142h234.945c-2.839-3.631-4.548-8.186-4.548-13.142z" fill="#ffd600"/><g><path d="m287.646 186.859h-63.292c-2.845 0-5.151-2.306-5.151-5.151v-30.7c0-2.845 2.306-5.151 5.151-5.151h63.292c2.845 0 5.151 2.306 5.151 5.151v30.7c0 2.845-2.306 5.151-5.151 5.151z" fill="#fd4755"/></g><g><path d="m251.429 181.708v-30.7c0-2.845 2.306-5.151 5.151-5.151h-32.225c-2.845 0-5.151 2.306-5.151 5.151v30.7c0 2.845 2.306 5.151 5.151 5.151h32.225c-2.845 0-5.151-2.306-5.151-5.151z" fill="#fb2b3a"/></g><path d="m464.957 447.641h-417.914c-2.596 0-5.138-.227-7.618-.642v34.339c0 2.845 2.306 5.151 5.151 5.151h422.848c2.845 0 5.151-2.306 5.151-5.151v-34.339c-2.48.415-5.022.642-7.618.642z" fill="#faea5e"/><path d="m86.576 481.338v-33.697h-39.533c-2.596 0-5.138-.227-7.618-.642v34.339c0 2.845 2.306 5.151 5.151 5.151h47.151c-2.844 0-5.151-2.306-5.151-5.151z" fill="#ffd600"/><g><g><path d="m496.23 171.782v-107.024c-3.631 2.838-8.186 4.547-13.142 4.547-4.955 0-9.51-1.709-13.141-4.547v107.024z" fill="#ffd600"/><path d="m501.698 170.782h-37.22c-5.69 0-10.302 4.612-10.302 10.302v61.445h4.729c1.153 0 2.091.938 2.091 2.09v104.095h3.961c25.109 0 45.576 20.208 46.022 45.213l1.021.831v-213.674c0-5.69-4.612-10.302-10.302-10.302z" fill="#faea5e"/><path d="m458.905 242.528c1.153 0 2.091.938 2.091 2.09v104.095h3.961c3.603 0 7.105.429 10.472 1.216v-168.845c0-5.69 4.612-10.302 10.302-10.302h-21.252c-5.69 0-10.302 4.612-10.302 10.302v61.445h4.728z" fill="#ffd600"/><g><circle cx="483.088" cy="47.908" fill="#9facba" r="22.397"/></g><g><path d="m483.173 47.908c0-8.271 4.487-15.49 11.156-19.369-3.305-1.922-7.143-3.028-11.241-3.028-12.37 0-22.397 10.028-22.397 22.397s10.028 22.397 22.397 22.397c4.098 0 7.936-1.106 11.241-3.028-6.669-3.879-11.156-11.097-11.156-19.369z" fill="#8d9ca8"/></g></g><path d="m160.394 348.713v-104.094c0-1.707-1.384-3.091-3.091-3.091h-104.208c-1.707 0-3.091 1.384-3.091 3.091v104.094z" fill="#ea9b58"/><path d="m82.769 348.713v-104.094c0-1.707 1.384-3.091 3.091-3.091h-32.766c-1.707 0-3.09 1.384-3.09 3.091v104.094z" fill="#d88a55"/><path d="m311.195 348.713v-104.094c0-1.707-1.384-3.091-3.091-3.091h-35.349l-1 1.941v43.364c0 1.152-.938 2.09-2.091 2.09h-27.33c-1.153 0-2.091-.938-2.091-2.09v-43.118l-1-2.187h-35.349c-1.707 0-3.091 1.384-3.091 3.091v104.094z" fill="#ea9b58"/><path d="m233.175 348.713v-104.094c0-1.707 1.384-3.091 3.091-3.091h-32.37c-1.707 0-3.091 1.384-3.091 3.091v104.094z" fill="#d88a55"/><g><path d="m242.335 289.923h27.33c1.707 0 3.091-1.384 3.091-3.091v-45.305h-33.511v45.305c-.001 1.707 1.383 3.091 3.09 3.091z" fill="#fd4755"/></g><path d="m254 286.833v-45.305h-14.756v45.305c0 1.707 1.384 3.091 3.091 3.091h14.756c-1.707-.001-3.091-1.385-3.091-3.091z" fill="#fb2b3a"/><path d="m461.996 348.713v-104.094c0-1.707-1.384-3.091-3.091-3.091h-35.349l-1 2.444v42.861c0 1.152-.938 2.09-2.091 2.09h-27.33c-1.153 0-2.091-.938-2.091-2.09v-42.919l-1-2.386h-35.349c-1.707 0-3.091 1.384-3.091 3.091v104.094z" fill="#ea9b58"/><path d="m383.582 348.713v-104.094c0-1.707 1.384-3.091 3.091-3.091h-31.976c-1.707 0-3.091 1.384-3.091 3.091v104.094z" fill="#d88a55"/><g><path d="m393.136 289.923h27.33c1.707 0 3.091-1.384 3.091-3.091v-45.305h-33.511v45.305c-.001 1.707 1.383 3.091 3.09 3.091z" fill="#fd4755"/></g><path d="m404.801 286.833v-45.305h-14.756v45.305c0 1.707 1.384 3.091 3.091 3.091h14.756c-1.708-.001-3.091-1.385-3.091-3.091z" fill="#fb2b3a"/></g><g><path d="m464.957 448.641h-417.914c-25.981 0-47.043-21.062-47.043-47.043v-6.842c0-25.981 21.062-47.043 47.043-47.043h417.914c25.981 0 47.043 21.062 47.043 47.043v6.842c0 25.981-21.062 47.043-47.043 47.043z" fill="#596c76"/></g><g><path d="m49.67 427.765c-14.47-2.078-25.63-14.552-25.63-29.588s11.159-27.51 25.63-29.588c8.442-12.588 22.8-20.876 39.096-20.876h-41.723c-25.981 0-47.043 21.062-47.043 47.043v6.842c0 25.981 21.062 47.043 47.043 47.043h41.722c-16.295 0-30.653-8.288-39.095-20.876z" fill="#465a61"/></g><g><g><circle cx="53.937" cy="398.177" fill="#fff" r="22.397"/></g><g><path d="m53.054 398.177c0-8.471 4.703-15.841 11.64-19.647-3.193-1.752-6.858-2.75-10.757-2.75-12.37 0-22.397 10.028-22.397 22.397 0 12.37 10.028 22.397 22.397 22.397 3.899 0 7.564-.998 10.757-2.75-6.936-3.806-11.64-11.176-11.64-19.647z" fill="#f2fbff"/></g><g><path d="m53.938 428.074c-16.485 0-29.897-13.412-29.897-29.897s13.412-29.897 29.897-29.897 29.897 13.412 29.897 29.897-13.412 29.897-29.897 29.897zm0-44.795c-8.215 0-14.897 6.683-14.897 14.897s6.683 14.897 14.897 14.897 14.897-6.683 14.897-14.897-6.683-14.897-14.897-14.897z" fill="#8d9ca8"/></g><g><circle cx="134.762" cy="398.177" fill="#fff" r="22.397"/></g><g><circle cx="215.587" cy="398.177" fill="#fff" r="22.397"/></g><g><path d="m214.704 398.177c0-8.471 4.703-15.841 11.64-19.647-3.193-1.752-6.858-2.75-10.757-2.75-12.37 0-22.397 10.028-22.397 22.397 0 12.37 10.028 22.397 22.397 22.397 3.899 0 7.564-.998 10.757-2.75-6.936-3.806-11.64-11.176-11.64-19.647z" fill="#f2fbff"/></g><g><path d="m215.588 428.074c-16.485 0-29.897-13.412-29.897-29.897s13.412-29.897 29.897-29.897 29.896 13.412 29.896 29.897-13.411 29.897-29.896 29.897zm0-44.795c-8.215 0-14.897 6.683-14.897 14.897s6.683 14.897 14.897 14.897 14.896-6.683 14.896-14.897-6.682-14.897-14.896-14.897z" fill="#8d9ca8"/></g><g><circle cx="296.413" cy="398.177" fill="#fff" r="22.397"/></g><g><path d="m295.53 398.177c0-8.471 4.703-15.841 11.64-19.647-3.193-1.752-6.858-2.75-10.757-2.75-12.37 0-22.397 10.028-22.397 22.397 0 12.37 10.028 22.397 22.397 22.397 3.899 0 7.564-.998 10.757-2.75-6.937-3.806-11.64-11.176-11.64-19.647z" fill="#f2fbff"/></g><g><path d="m296.412 428.074c-16.485 0-29.896-13.412-29.896-29.897s13.411-29.897 29.896-29.897 29.897 13.412 29.897 29.897-13.412 29.897-29.897 29.897zm0-44.795c-8.214 0-14.896 6.683-14.896 14.897s6.683 14.897 14.896 14.897c8.215 0 14.897-6.683 14.897-14.897s-6.682-14.897-14.897-14.897z" fill="#8d9ca8"/></g><g><circle cx="377.238" cy="398.177" fill="#fff" r="22.397"/></g><g><path d="m376.355 398.177c0-8.471 4.703-15.841 11.64-19.647-3.193-1.752-6.858-2.75-10.757-2.75-12.37 0-22.397 10.028-22.397 22.397 0 12.37 10.028 22.397 22.397 22.397 3.899 0 7.564-.998 10.757-2.75-6.937-3.806-11.64-11.176-11.64-19.647z" fill="#f2fbff"/></g><g><path d="m377.237 428.074c-16.485 0-29.897-13.412-29.897-29.897s13.412-29.897 29.897-29.897 29.897 13.412 29.897 29.897-13.411 29.897-29.897 29.897zm0-44.795c-8.215 0-14.897 6.683-14.897 14.897s6.683 14.897 14.897 14.897 14.897-6.683 14.897-14.897-6.682-14.897-14.897-14.897z" fill="#8d9ca8"/></g><g><circle cx="458.063" cy="398.177" fill="#fff" r="22.397"/></g><g><path d="m133.879 398.177c0-8.471 4.703-15.841 11.64-19.647-3.193-1.752-6.858-2.75-10.757-2.75-12.37 0-22.397 10.028-22.397 22.397 0 12.37 10.028 22.397 22.397 22.397 3.899 0 7.564-.998 10.757-2.75-6.936-3.806-11.64-11.176-11.64-19.647z" fill="#f2fbff"/></g><g><path d="m134.763 428.074c-16.485 0-29.897-13.412-29.897-29.897s13.412-29.897 29.897-29.897 29.897 13.412 29.897 29.897-13.412 29.897-29.897 29.897zm0-44.795c-8.215 0-14.897 6.683-14.897 14.897s6.683 14.897 14.897 14.897 14.897-6.683 14.897-14.897-6.682-14.897-14.897-14.897z" fill="#8d9ca8"/></g><g><path d="m457.18 398.177c0-8.471 4.703-15.841 11.64-19.647-3.193-1.752-6.858-2.75-10.757-2.75-12.37 0-22.397 10.028-22.397 22.397 0 12.37 10.028 22.397 22.397 22.397 3.899 0 7.564-.998 10.757-2.75-6.937-3.806-11.64-11.176-11.64-19.647z" fill="#f2fbff"/></g><g><path d="m458.063 428.074c-16.485 0-29.897-13.412-29.897-29.897s13.412-29.897 29.897-29.897 29.897 13.412 29.897 29.897-13.412 29.897-29.897 29.897zm0-44.795c-8.215 0-14.897 6.683-14.897 14.897s6.683 14.897 14.897 14.897 14.897-6.683 14.897-14.897-6.683-14.897-14.897-14.897z" fill="#8d9ca8"/></g></g></g></svg>