<svg id="Capa_1" enable-background="new 0 0 512 512" height="512" viewBox="0 0 512 512" width="512" xmlns="http://www.w3.org/2000/svg"><g><g><path d="m315.607 512c-8.284 0-15-6.716-15-15v-74.21c0-8.284 6.716-15 15-15s15 6.716 15 15v74.21c0 8.284-6.716 15-15 15z" fill="#dcd8ee"/><path d="m375.607 512c-8.284 0-15-6.716-15-15v-114.21c0-8.284 6.716-15 15-15s15 6.716 15 15v114.21c0 8.284-6.716 15-15 15z" fill="#dcd8ee"/><path d="m195.607 512c-8.284 0-15-6.716-15-15v-74.21c0-8.284 6.716-15 15-15s15 6.716 15 15v74.21c0 8.284-6.716 15-15 15z" fill="#f4f4f5"/><path d="m135.607 512c-8.284 0-15-6.716-15-15v-114.21c0-8.284 6.716-15 15-15s15 6.716 15 15v114.21c0 8.284-6.716 15-15 15z" fill="#f4f4f5"/><g><path d="m256 512c-8.284 0-15-6.716-15-15v-24.21c0-8.284 6.716-15 15-15s15 6.716 15 15v24.21c0 8.284-6.716 15-15 15z" fill="#f4f4f5"/><path d="m256 457.789v54.211c8.284 0 15-6.716 15-15v-24.21c0-8.285-6.716-15.001-15-15.001z" fill="#dcd8ee"/></g></g><g><g><path d="m256 424.065c-3.582 0-6.935-1.759-8.971-4.706-.232-.337-5.76-8.357-11.363-18.016-11.092-19.122-12.375-27.303-12.375-31.793 0-18.036 14.673-32.709 32.709-32.709s32.709 14.673 32.709 32.709c0 4.49-1.283 12.672-12.375 31.793-5.603 9.658-11.13 17.679-11.363 18.016-2.036 2.947-5.389 4.706-8.971 4.706z" fill="#fff16b"/><path d="m256 336.84v87.225c3.582 0 6.935-1.759 8.971-4.706.233-.337 5.76-8.357 11.363-18.016 11.093-19.122 12.375-27.303 12.375-31.793 0-18.036-14.673-32.71-32.709-32.71z" fill="#ffd845"/></g><g><g><path d="m376.392 337.789h-240.785c-8.284 0-15-6.716-15-15v-68.854c0-30.737 25.006-55.743 55.743-55.743h159.299c30.737 0 55.743 25.006 55.743 55.743v68.854c0 8.284-6.715 15-15 15z" fill="#ff4a4a"/><path d="m335.649 198.193h-79.649v139.596h120.393c8.284 0 15-6.716 15-15v-68.854c-.001-30.736-25.007-55.742-55.744-55.742z" fill="#af3345"/></g><g><g><path d="m311.637 337.789h-111.044c-7.101 0-13.229-4.979-14.682-11.929l-30.476-145.685c-10.117-42.08 1.513-85.773 31.93-119.912 27.078-30.392 57.778-55.776 59.072-56.841 5.541-4.563 13.537-4.563 19.075 0 1.295 1.067 32.036 26.484 59.127 56.903 30.356 34.084 42.004 77.705 31.975 119.709l-30.29 145.806c-1.447 6.96-7.578 11.949-14.687 11.949z" fill="#ff8659"/><path d="m324.639 60.326c-27.091-30.419-57.832-55.836-59.127-56.903-2.762-2.276-6.137-3.416-9.512-3.421v337.788h55.637c7.108 0 13.24-4.989 14.687-11.949l30.291-145.806c10.028-42.004-1.619-85.625-31.976-119.709z" fill="#ff4a4a"/></g><g><g><path d="m256 206.453c-24.813 0-45-20.187-45-45s20.187-45 45-45 45 20.187 45 45-20.187 45-45 45z" fill="#dcd8ee"/><path d="m256 116.453v90c24.813 0 45-20.187 45-45s-20.187-45-45-45z" fill="#bebcdd"/></g><g><circle cx="256" cy="161.453" fill="#f4f4f5" r="15"/><path d="m256 146.453v30c8.271 0 15-6.729 15-15s-6.729-15-15-15z" fill="#dcd8ee"/></g></g></g></g></g></g></svg>