<svg height="512" viewBox="0 0 512 512" width="512" xmlns="http://www.w3.org/2000/svg"><g><g><path d="m176 320h96v80h-96z" fill="#ffdaaa"/><path d="m240 32.29a111.983 111.983 0 0 1 104 111.71h-240a111.977 111.977 0 0 1 104-111.71" fill="#ff9811"/><g><g><path d="m328 168v72c0 57.438-64 104-104 104-40 0-104-46.562-104-104v-72" fill="#ffdaaa"/><path d="m432 496h-416l2.75-57.63a80.021 80.021 0 0 1 60.44-56.31l16.81-4.18 32-7.94 48-9.94 15.38 9.07c25.07 14.77 40.17 14.77 65.24 0l15.38-9.07 48 9.94 16 3.97" fill="#3e3d42"/></g><g fill="#ffdaaa"><path d="m108 168h12a0 0 0 0 1 0 0v80a0 0 0 0 1 0 0h-12a20 20 0 0 1 -20-20v-40a20 20 0 0 1 20-20z"/><path d="m348 168h12a0 0 0 0 1 0 0v80a0 0 0 0 1 0 0h-12a20 20 0 0 1 -20-20v-40a20 20 0 0 1 20-20z" transform="matrix(-1 0 0 -1 688 416)"/></g></g><path d="m88 144h272v24h-272z" fill="#ffda44"/><path d="m208 16h32v88h-32z" fill="#ffda44"/><path d="m336 304h160v192h-160z" fill="#a0815c"/><path d="m448 328h24v144h-112v-144h24" fill="#ffeb99"/><path d="m384 304h64v40h-64z" fill="#ffda44"/></g><g><circle cx="176" cy="200" r="16"/><circle cx="272" cy="200" r="16"/><path d="m259.578 287.155a8 8 0 1 0 -7.156-14.31c-19.126 9.562-37.718 9.562-56.844 0a8 8 0 1 0 -7.156 14.31c11.8 5.9 23.691 8.853 35.578 8.853s23.774-2.95 35.578-8.853z"/><path d="m496 296h-160a8 8 0 0 0 -8 8v59.68l-6.07-1.5c-.1-.03-.21-.05-.31-.07l-41.62-8.62v-21.38c25.88-17.35 48.55-44.62 54.48-76.11h5.52a28.031 28.031 0 0 0 28-28v-40a27.841 27.841 0 0 0 -3.44-13.43 7.993 7.993 0 0 0 3.44-6.57v-24a8 8 0 0 0 -8-8h-8.27a119.975 119.975 0 0 0 -103.73-110.93v-9.07a8 8 0 0 0 -8-8h-32a8 8 0 0 0 -8 8v9.07a119.962 119.962 0 0 0 -103.73 110.93h-8.27a8 8 0 0 0 -8 8v24a7.993 7.993 0 0 0 3.44 6.57 27.841 27.841 0 0 0 -3.44 13.43v40a28.031 28.031 0 0 0 28 28h5.52c5.93 31.49 28.6 58.76 54.48 76.11v21.38l-41.62 8.62c-.1.02-.21.04-.31.07l-48.67 12.08a87.81 87.81 0 0 0 -66.34 61.91 7.957 7.957 0 0 0 -.3 1.82l-2.75 57.63a8 8 0 0 0 7.99 8.38h480a8 8 0 0 0 8-8v-192a8 8 0 0 0 -8-8zm-144-68a12.01 12.01 0 0 1 -12 12h-4v-64h4a12.01 12.01 0 0 1 12 12zm-136-204h16v72h-16zm-73.54 46.46a103.84 103.84 0 0 1 57.54-29.21v62.75a8 8 0 0 0 8 8h32a8 8 0 0 0 8-8v-62.76a104 104 0 0 1 87.7 94.76h-223.4a103.219 103.219 0 0 1 30.16-65.54zm-30.46 169.54h-4a12.01 12.01 0 0 1 -12-12v-40a12.01 12.01 0 0 1 12-12h4zm-16-80v-8h256v8zm66.34 147.58c-29.88-26.78-34.34-53.83-34.34-67.58v-64h192v64c0 13.75-4.46 40.8-34.34 67.58-19.26 17.27-43.47 28.42-61.66 28.42s-42.4-11.15-61.66-28.42zm101.66 33.8v14.05l-11.44 6.75c-22.69 13.36-34.43 13.36-57.12 0l-11.44-6.75v-14.05c13.85 6.81 27.82 10.62 40 10.62s26.15-3.81 40-10.62zm64 146.62h-248v-16a8 8 0 0 0 -16 0v16h-39.61l2.31-48.3a71.837 71.837 0 0 1 54.14-49.81 2.864 2.864 0 0 0 .28-.07l48.66-12.08 44.82-9.28 12.72 7.5c27.42 16.16 45.93 16.16 73.36 0l12.72-7.5 44.82 9.28 9.78 2.43zm64-176h48v24h-48zm-8 40h64a8 8 0 0 0 8-8v-8h8v128h-96v-128h8v8a8 8 0 0 0 8 8zm104 136h-144v-176h32v8h-16a8 8 0 0 0 -8 8v144a8 8 0 0 0 8 8h112a8 8 0 0 0 8-8v-144a8 8 0 0 0 -8-8h-16v-8h32z"/></g></g></svg>