<svg id="Capa_1" enable-background="new 0 0 512 512" height="512" viewBox="0 0 512 512" width="512" xmlns="http://www.w3.org/2000/svg"><g><g><g><path d="m13.122 87.555v214.911c0 15.772 12.787 28.559 28.559 28.559h224.129c15.772 0 28.559-12.787 28.559-28.559v-265.434c0-15.772-12.787-28.559-28.559-28.559h-173.606z" fill="#f6f9f9"/><path d="m13.122 87.555h50.524c15.771 0 28.559-12.787 28.559-28.559v-50.523" fill="#dddaec"/></g><g><path d="m219.679 425.418v-214.912c0-15.772 12.787-28.559 28.559-28.559h224.129c15.772 0 28.559 12.787 28.559 28.559v265.435c0 15.772-12.787 28.559-28.559 28.559h-173.605z" fill="#f5de7d"/><path d="m219.679 425.418h50.524c15.771 0 28.559 12.787 28.559 28.559v50.523" fill="#f1ce64"/></g><g><path d="m111.762 501.564 69.984-34.541c7.03-3.466 10.583-10.376 10.409-17.243-.13-5.726-2.847-11.441-8.301-15.081l-64.899-43.342c-11.963-7.997-28.109-.033-29.043 14.331l-.206 3.14c-11.267-10.116-20.275-22.665-26.327-36.986-5.922-14.016-22.089-20.568-36.095-14.646-1.673.706-3.249 1.565-4.705 2.553-10.702 7.204-15.168 21.198-9.953 33.542 14.527 34.378 40.169 62.095 72.917 79.176l-.728 11.115c-.933 14.364 14.039 24.36 26.947 17.982z" fill="#9dc6fb"/><path d="m186.918 463.274c3.586-3.662 5.357-8.584 5.237-13.484-.13-5.726-2.847-11.441-8.301-15.092l-64.899-43.331c-11.963-8.008-28.109-.033-29.043 14.32l-.206 3.151c-11.267-10.115-20.275-22.665-26.327-36.986-5.922-14.027-22.089-20.568-36.095-14.647-1.673.706-3.249 1.565-4.705 2.543-10.702 7.215-15.168 21.198-9.953 33.552.337.804.685 1.597 1.032 2.391 2.075-3.912 5.096-7.345 8.92-9.92 1.456-.989 3.031-1.847 4.705-2.553 14.005-5.922 30.173.63 36.095 14.646 6.052 14.32 15.059 26.87 26.327 36.986l.206-3.14c.934-14.364 17.08-22.328 29.043-14.331l64.899 43.342c1.142.771 2.174 1.63 3.065 2.553z" fill="#80b4fb"/></g><g><path d="m427.178 27.456-.725 11.107c32.752 17.087 58.388 44.801 72.917 79.176 5.923 14.014-.636 30.176-14.65 36.099s-30.176-.636-36.099-14.65c-6.052-14.319-15.057-26.865-26.324-36.983l-.205 3.139c-.938 14.368-17.079 22.332-29.052 14.334l-64.899-43.347c-11.972-7.996-10.8-25.954 2.11-32.325l69.986-34.541c12.912-6.373 27.88 3.623 26.941 17.991z" fill="#dd636e"/><path d="m499.085 139.847c3.064-6.758 3.401-14.734.283-22.111-14.527-34.378-40.158-62.085-72.918-79.176l.728-11.104c.945-14.375-14.027-24.371-26.935-17.993l-69.995 34.541c-10.985 5.422-13.473 19.232-6.584 28.152 1.652-2.184 3.857-4.042 6.584-5.389l69.995-34.541c12.908-6.378 27.881 3.618 26.935 17.993l-.728 11.105c32.553 16.982 58.065 44.45 72.635 78.523z" fill="#da4a54"/></g></g><g><path d="m472.366 174.455h-170.498v-137.408c0-19.889-16.176-36.069-36.06-36.069h-173.607c-1.989 0-3.897.791-5.304 2.197l-79.069 79.088c-1.406 1.407-2.196 3.314-2.196 5.303v59.689c0 4.142 3.358 7.5 7.5 7.5s7.5-3.358 7.5-7.5v-52.194h43.016c19.883 0 36.058-16.176 36.058-36.058v-43.026h166.102c11.613 0 21.06 9.452 21.06 21.07v137.408h-38.629c-12.825 0-24.1 6.735-30.494 16.849h-143.068c-4.142 0-7.5 3.358-7.5 7.5s3.358 7.5 7.5 7.5h137.757c-.162 1.382-.254 2.786-.254 4.21v23.575h-137.503c-4.142 0-7.5 3.358-7.5 7.5s3.358 7.5 7.5 7.5h137.503v74.443h-170.498c-11.607 0-21.05-9.447-21.05-21.059v-125.218c0-4.142-3.358-7.5-7.5-7.5s-7.5 3.358-7.5 7.5v125.218c0 19.883 16.172 36.059 36.05 36.059h170.498v86.889c0 1.989.79 3.897 2.197 5.303l79.078 79.079c1.406 1.407 3.314 2.197 5.303 2.197h96.929c4.142 0 7.5-3.358 7.5-7.5s-3.358-7.5-7.5-7.5h-89.425v-43.023c0-19.883-16.176-36.059-36.059-36.059h-43.023v-207.404c0-11.612 9.448-21.059 21.06-21.059h224.127c11.612 0 21.06 9.447 21.06 21.059v265.426c0 11.613-9.448 21.06-21.06 21.06h-46.68c-4.142 0-7.5 3.358-7.5 7.5s3.358 7.5 7.5 7.5h46.68c19.884 0 36.06-16.176 36.06-36.06v-265.426c-.002-19.883-16.178-36.059-36.061-36.059zm-408.718-94.394h-32.408l53.467-53.48v32.422c0 11.612-9.447 21.058-21.059 21.058zm227.613 373.916v32.42l-53.478-53.479h32.42c11.611.001 21.058 9.448 21.058 21.059z"/><path d="m188.026 428.465-64.898-43.346c-7.878-5.262-17.653-5.901-26.148-1.708-4.869 2.402-8.734 6.104-11.264 10.605-6.36-7.467-11.527-15.866-15.426-25.089-3.644-8.623-10.429-15.31-19.103-18.831-8.674-3.52-18.2-3.452-26.823.193-8.623 3.644-15.31 10.429-18.831 19.103-3.52 8.675-3.452 18.201.193 26.824 14.418 34.112 39.889 62.553 72.027 80.563l-.412 6.31c-.618 9.453 3.717 18.238 11.596 23.499 4.427 2.956 9.452 4.452 14.512 4.452 3.946 0 7.914-.91 11.636-2.747l69.985-34.541c8.494-4.193 13.933-12.338 14.55-21.79.616-9.452-3.718-18.236-11.594-23.497zm-3.375 22.52c-.264 4.041-2.589 7.524-6.221 9.316l-69.985 34.541c-3.632 1.793-7.811 1.521-11.18-.729-3.368-2.249-5.222-6.005-4.958-10.047l.726-11.107c.194-2.964-1.381-5.764-4.015-7.138-31.097-16.223-55.771-43.017-69.477-75.445-2.085-4.933-2.124-10.382-.11-15.344s5.839-8.842 10.772-10.927 10.381-2.124 15.343-.11 8.843 5.839 10.928 10.772c6.464 15.294 15.959 28.632 28.221 39.643 2.136 1.918 5.181 2.449 7.841 1.365 3.985-1.437 4.93-5.813 4.859-9.596.264-4.042 2.59-7.525 6.222-9.317 3.632-1.793 7.811-1.52 11.18.73l64.898 43.346c3.367 2.25 5.22 6.005 4.956 10.047z"/><path d="m323.974 82.574 64.898 43.346c7.877 5.261 17.652 5.901 26.148 1.709 4.869-2.402 8.735-6.104 11.264-10.606 6.361 7.467 11.528 15.866 15.427 25.089 3.644 8.623 10.429 15.31 19.103 18.831 4.259 1.728 8.722 2.591 13.183 2.591 4.626 0 9.251-.929 13.641-2.784 8.623-3.644 15.31-10.429 18.831-19.103 3.52-8.675 3.452-18.201-.193-26.824-14.418-34.113-39.889-62.554-72.027-80.563l.412-6.309c.618-9.453-3.717-18.238-11.596-23.499-7.878-5.261-17.654-5.899-26.149-1.707l-69.984 34.541c-8.494 4.192-13.933 12.338-14.551 21.79-.618 9.454 3.717 18.238 11.593 23.498zm3.374-22.519c.264-4.041 2.589-7.524 6.221-9.316l69.984-34.541c3.632-1.794 7.811-1.52 11.181.729 3.369 2.249 5.222 6.005 4.958 10.047l-.726 11.107c-.194 2.964 1.381 5.764 4.015 7.138 31.097 16.223 55.771 43.016 69.477 75.445 2.085 4.933 2.124 10.382.11 15.344s-5.839 8.842-10.772 10.927c-4.932 2.084-10.381 2.124-15.344.11-4.962-2.014-8.842-5.839-10.927-10.772-6.464-15.294-15.959-28.631-28.221-39.643-2.143-1.927-5.204-2.444-7.841-1.366-3.986 1.438-4.93 5.813-4.859 9.597-.264 4.041-2.59 7.525-6.223 9.317-3.632 1.793-7.811 1.52-11.18-.731l-64.898-43.346c-3.365-2.25-5.219-6.005-4.955-10.046z"/><path d="m74.675 120.738h158.144c4.142 0 7.5-3.358 7.5-7.5s-3.358-7.5-7.5-7.5h-158.144c-4.142 0-7.5 3.358-7.5 7.5s3.358 7.5 7.5 7.5z"/><path d="m74.675 163.523h158.144c4.142 0 7.5-3.358 7.5-7.5s-3.358-7.5-7.5-7.5h-158.144c-4.142 0-7.5 3.358-7.5 7.5s3.358 7.5 7.5 7.5z"/><path d="m281.229 274.35h158.144c4.142 0 7.5-3.358 7.5-7.5s-3.358-7.5-7.5-7.5h-158.144c-4.142 0-7.5 3.358-7.5 7.5s3.358 7.5 7.5 7.5z"/><path d="m281.229 317.136h158.144c4.142 0 7.5-3.358 7.5-7.5s-3.358-7.5-7.5-7.5h-158.144c-4.142 0-7.5 3.358-7.5 7.5s3.358 7.5 7.5 7.5z"/><path d="m281.229 359.921h158.144c4.142 0 7.5-3.358 7.5-7.5s-3.358-7.5-7.5-7.5h-158.144c-4.142 0-7.5 3.358-7.5 7.5s3.358 7.5 7.5 7.5z"/><path d="m281.229 402.706h158.144c4.142 0 7.5-3.358 7.5-7.5s-3.358-7.5-7.5-7.5h-158.144c-4.142 0-7.5 3.358-7.5 7.5s3.358 7.5 7.5 7.5z"/></g></g></svg>